<svg id="Layer_1" data-name="Layer 1" xmlns="http://www.w3.org/2000/svg" viewBox="0 0 439.54 118.68"><defs><style>.cls-1{font-size:80px;font-family:MyriadPro-Regular, Myriad Pro;}.cls-1,.cls-3,.cls-4{fill:#fff;}.cls-2{fill:#1d1d1b;stroke:#fff;stroke-miterlimit:10;}.cls-3{font-size:25px;font-family:PalatinoLinotype-Roman, Palatino Linotype;letter-spacing:1.4em;}</style></defs><text class="cls-1" transform="translate(185.84 73.65)">STIFY</text><text class="cls-1" transform="translate(0 73.65)">M</text><line class="cls-2" x1="199.06" y1="82.68" x2="367.54" y2="83.79"/><text class="cls-3" transform="translate(202.93 107.65)">2023</text><path class="cls-4" d="M175.73,575a30.45,30.45,0,0,0,1-13.74c-1.68-11.66-8.86-20.27-16.05-19.23-5.47.78-9.36,6.92-10.17,14.94l-8.63-6.17V492.38l48.26,30.39.07,62.55Z" transform="translate(-65.42 -477.87)"/><path class="cls-4" d="M243.09,492.64v58.72l-7,5c-1.27-7.38-5.19-12.83-10.38-13.43-7.22-.84-14.17,8-15.54,19.65a31.49,31.49,0,0,0,.73,11.66l-15.63,11.1V523.53Z" transform="translate(-65.42 -477.87)"/><path class="cls-4" d="M239.09,489.74l-46.22,29.11-47.42-29.26,29.16-11.72c1.84,11.22,10.4,19.7,20.69,19.7,9.61,0,17.72-7.42,20.24-17.55Z" transform="translate(-65.42 -477.87)"/></svg>