<svg xmlns="http://www.w3.org/2000/svg" viewBox="304.736 110.793 614.129 43.468"><defs><mask id="86d815dd91"><g filter="url(#a5858fc0a9)"><rect width="1728" height="972" x="-144" y="-81" fill="#000" fill-opacity=".337"/></g></mask><filter id="a5858fc0a9" width="100%" height="100%" x="0%" y="0%"><feColorMatrix color-interpolation-filters="sRGB" values="0 0 0 0 1 0 0 0 0 1 0 0 0 0 1 0 0 0 1 0"/></filter><clipPath id="052bd50bbb"><rect width="557" height="442" x="0" y="0"/></clipPath><clipPath id="d3b57ccc88"><path d="M 0 148 L 443 148 L 443 442 L 0 442 Z M 0 148" clip-rule="nonzero"/></clipPath><clipPath id="a4828736ab"><path d="M 206.917969 -1.382812 L 556.203125 408.476562 L 257.65625 662.898438 L -91.625 253.039062 Z M 206.917969 -1.382812" clip-rule="nonzero"/></clipPath><clipPath id="732db42ff7"><path d="M 206.917969 -1.382812 L 556.203125 408.476562 L 257.65625 662.898438 L -91.625 253.039062 Z M 206.917969 -1.382812" clip-rule="nonzero"/></clipPath><clipPath id="7c4166c9f1"><path d="M 419.351562 448.378906 C 447.746094 419.847656 450.566406 373.859375 426.144531 341.917969 C 407.34375 317.164062 377.527344 306.378906 349.277344 310.578125 C 335.226562 312.613281 321.703125 304.511719 316.285156 291.285156 C 312.148438 281.050781 306.199219 271.082031 298.652344 262.226562 C 276.507812 236.242188 244.65625 223.367188 212.796875 224.527344 C 194.308594 225.242188 177.21875 215.34375 167.601562 199.578125 C 163.476562 192.644531 158.363281 186.046875 152.507812 180.074219 C 114.601562 141.273438 52.894531 137.28125 10.230469 170.582031 C -38.289062 208.363281 -44.957031 278.523438 -5.449219 324.882812 C 10.90625 344.074219 32.515625 355.988281 55.257812 360.5625 C 78.273438 365.160156 94.542969 385.449219 93.917969 408.917969 C 93.265625 436.234375 102.894531 463.964844 123.449219 485.695312 C 161.269531 525.59375 224.300781 530.238281 267.429688 496.289062 C 272.421875 492.289062 276.867188 488.246094 281.085938 483.632812 C 295.105469 468.113281 316.488281 462.128906 336.46875 468.546875 C 364.207031 477.785156 396.625 471.3125 419.351562 448.378906 Z M 419.351562 448.378906" clip-rule="nonzero"/></clipPath><linearGradient id="ff3754129e" x1="-23.697" x2="304.397" y1="208.518" y2="90.588" gradientTransform="matrix(1.258181, 1.476392, -1.475031, 1.257022, 207.758213, 1.992492)" gradientUnits="userSpaceOnUse"><stop offset="0" stop-color="#2960B2" stop-opacity="1"/><stop offset=".063" stop-color="#2960B2" stop-opacity="1"/><stop offset=".07" stop-color="#2960B2" stop-opacity="1"/><stop offset=".074" stop-color="#2960B1" stop-opacity="1"/><stop offset=".078" stop-color="#2960B1" stop-opacity="1"/><stop offset=".082" stop-color="#2A60B0" stop-opacity="1"/><stop offset=".086" stop-color="#2A5FAF" stop-opacity="1"/><stop offset=".09" stop-color="#2A5FAE" stop-opacity="1"/><stop offset=".094" stop-color="#2A5FAD" stop-opacity="1"/><stop offset=".098" stop-color="#2B5FAC" stop-opacity="1"/><stop offset=".102" stop-color="#2B5FAC" stop-opacity="1"/><stop offset=".105" stop-color="#2B5FAB" stop-opacity="1"/><stop offset=".109" stop-color="#2B5FAA" stop-opacity="1"/><stop offset=".113" stop-color="#2C5FA9" stop-opacity="1"/><stop offset=".117" stop-color="#2C5FA8" stop-opacity="1"/><stop offset=".121" stop-color="#2C5EA7" stop-opacity="1"/><stop offset=".125" stop-color="#2C5EA7" stop-opacity="1"/><stop offset=".129" stop-color="#2D5EA6" stop-opacity="1"/><stop offset=".133" stop-color="#2D5EA5" stop-opacity="1"/><stop offset=".137" stop-color="#2D5EA4" stop-opacity="1"/><stop offset=".141" stop-color="#2D5EA3" stop-opacity="1"/><stop offset=".144" stop-color="#2E5EA2" stop-opacity="1"/><stop offset=".148" stop-color="#2E5EA2" stop-opacity="1"/><stop offset=".152" stop-color="#2E5DA1" stop-opacity="1"/><stop offset=".156" stop-color="#2E5DA0" stop-opacity="1"/><stop offset=".16" stop-color="#2F5D9F" stop-opacity="1"/><stop offset=".164" stop-color="#2F5D9E" stop-opacity="1"/><stop offset=".168" stop-color="#2F5D9D" stop-opacity="1"/><stop offset=".172" stop-color="#2F5D9C" stop-opacity="1"/><stop offset=".176" stop-color="#305D9C" stop-opacity="1"/><stop offset=".18" stop-color="#305D9B" stop-opacity="1"/><stop offset=".184" stop-color="#305C9A" stop-opacity="1"/><stop offset=".188" stop-color="#305C99" stop-opacity="1"/><stop offset=".191" stop-color="#315C98" stop-opacity="1"/><stop offset=".195" stop-color="#315C97" stop-opacity="1"/><stop offset=".199" stop-color="#315C97" stop-opacity="1"/><stop offset=".203" stop-color="#315C96" stop-opacity="1"/><stop offset=".207" stop-color="#315C95" stop-opacity="1"/><stop offset=".211" stop-color="#325C94" stop-opacity="1"/><stop offset=".215" stop-color="#325C93" stop-opacity="1"/><stop offset=".219" stop-color="#325B92" stop-opacity="1"/><stop offset=".223" stop-color="#325B92" stop-opacity="1"/><stop offset=".227" stop-color="#335B91" stop-opacity="1"/><stop offset=".231" stop-color="#335B90" stop-opacity="1"/><stop offset=".234" stop-color="#335B8F" stop-opacity="1"/><stop offset=".238" stop-color="#335B8E" stop-opacity="1"/><stop offset=".242" stop-color="#345B8D" stop-opacity="1"/><stop offset=".246" stop-color="#345B8C" stop-opacity="1"/><stop offset=".25" stop-color="#345A8C" stop-opacity="1"/><stop offset=".254" stop-color="#345A8B" stop-opacity="1"/><stop offset=".258" stop-color="#355A8A" stop-opacity="1"/><stop offset=".262" stop-color="#355A89" stop-opacity="1"/><stop offset=".266" stop-color="#355A88" stop-opacity="1"/><stop offset=".27" stop-color="#355A87" stop-opacity="1"/><stop offset=".273" stop-color="#365A87" stop-opacity="1"/><stop offset=".277" stop-color="#365A86" stop-opacity="1"/><stop offset=".281" stop-color="#365985" stop-opacity="1"/><stop offset=".285" stop-color="#365984" stop-opacity="1"/><stop offset=".289" stop-color="#375983" stop-opacity="1"/><stop offset=".293" stop-color="#375982" stop-opacity="1"/><stop offset=".297" stop-color="#375981" stop-opacity="1"/><stop offset=".301" stop-color="#375981" stop-opacity="1"/><stop offset=".305" stop-color="#385980" stop-opacity="1"/><stop offset=".309" stop-color="#38597F" stop-opacity="1"/><stop offset=".313" stop-color="#38597E" stop-opacity="1"/><stop offset=".316" stop-color="#38587D" stop-opacity="1"/><stop offset=".32" stop-color="#39587C" stop-opacity="1"/><stop offset=".324" stop-color="#39587C" stop-opacity="1"/><stop offset=".328" stop-color="#39587B" stop-opacity="1"/><stop offset=".332" stop-color="#39587A" stop-opacity="1"/><stop offset=".336" stop-color="#3A5879" stop-opacity="1"/><stop offset=".34" stop-color="#3A5878" stop-opacity="1"/><stop offset=".344" stop-color="#3A5877" stop-opacity="1"/><stop offset=".348" stop-color="#3A5777" stop-opacity="1"/><stop offset=".352" stop-color="#3B5776" stop-opacity="1"/><stop offset=".355" stop-color="#3B5775" stop-opacity="1"/><stop offset=".359" stop-color="#3B5774" stop-opacity="1"/><stop offset=".363" stop-color="#3B5773" stop-opacity="1"/><stop offset=".367" stop-color="#3C5772" stop-opacity="1"/><stop offset=".371" stop-color="#3C5771" stop-opacity="1"/><stop offset=".375" stop-color="#3C5771" stop-opacity="1"/><stop offset=".379" stop-color="#3C5670" stop-opacity="1"/><stop offset=".383" stop-color="#3C566F" stop-opacity="1"/><stop offset=".387" stop-color="#3D566E" stop-opacity="1"/><stop offset=".391" stop-color="#3D566D" stop-opacity="1"/><stop offset=".395" stop-color="#3D566C" stop-opacity="1"/><stop offset=".398" stop-color="#3D566C" stop-opacity="1"/><stop offset=".402" stop-color="#3E566B" stop-opacity="1"/><stop offset=".406" stop-color="#3E566A" stop-opacity="1"/><stop offset=".41" stop-color="#3E5669" stop-opacity="1"/><stop offset=".414" stop-color="#3E5568" stop-opacity="1"/><stop offset=".418" stop-color="#3F5567" stop-opacity="1"/><stop offset=".422" stop-color="#3F5567" stop-opacity="1"/><stop offset=".426" stop-color="#3F5566" stop-opacity="1"/><stop offset=".43" stop-color="#3F5565" stop-opacity="1"/><stop offset=".434" stop-color="#405564" stop-opacity="1"/><stop offset=".438" stop-color="#405563" stop-opacity="1"/><stop offset=".441" stop-color="#405562" stop-opacity="1"/><stop offset=".445" stop-color="#405461" stop-opacity="1"/><stop offset=".449" stop-color="#415461" stop-opacity="1"/><stop offset=".453" stop-color="#415460" stop-opacity="1"/><stop offset=".457" stop-color="#41545F" stop-opacity="1"/><stop offset=".461" stop-color="#41545E" stop-opacity="1"/><stop offset=".465" stop-color="#42545D" stop-opacity="1"/><stop offset=".469" stop-color="#42545C" stop-opacity="1"/><stop offset=".473" stop-color="#42545C" stop-opacity="1"/><stop offset=".477" stop-color="#42545B" stop-opacity="1"/><stop offset=".48" stop-color="#43535A" stop-opacity="1"/><stop offset=".484" stop-color="#435359" stop-opacity="1"/><stop offset=".488" stop-color="#435358" stop-opacity="1"/><stop offset=".492" stop-color="#435357" stop-opacity="1"/><stop offset=".496" stop-color="#445356" stop-opacity="1"/><stop offset=".5" stop-color="#445356" stop-opacity="1"/><stop offset=".504" stop-color="#445355" stop-opacity="1"/><stop offset=".508" stop-color="#445354" stop-opacity="1"/><stop offset=".512" stop-color="#455253" stop-opacity="1"/><stop offset=".516" stop-color="#455252" stop-opacity="1"/><stop offset=".519" stop-color="#455251" stop-opacity="1"/><stop offset=".523" stop-color="#455251" stop-opacity="1"/><stop offset=".527" stop-color="#465250" stop-opacity="1"/><stop offset=".531" stop-color="#46524F" stop-opacity="1"/><stop offset=".535" stop-color="#46524E" stop-opacity="1"/><stop offset=".539" stop-color="#46524D" stop-opacity="1"/><stop offset=".543" stop-color="#46514C" stop-opacity="1"/><stop offset=".547" stop-color="#47514C" stop-opacity="1"/><stop offset=".551" stop-color="#47514B" stop-opacity="1"/><stop offset=".555" stop-color="#47514A" stop-opacity="1"/><stop offset=".559" stop-color="#475149" stop-opacity="1"/><stop offset=".563" stop-color="#485148" stop-opacity="1"/><stop offset=".566" stop-color="#485147" stop-opacity="1"/><stop offset=".57" stop-color="#485146" stop-opacity="1"/><stop offset=".574" stop-color="#485146" stop-opacity="1"/><stop offset=".578" stop-color="#495045" stop-opacity="1"/><stop offset=".582" stop-color="#495044" stop-opacity="1"/><stop offset=".586" stop-color="#495043" stop-opacity="1"/><stop offset=".59" stop-color="#495042" stop-opacity="1"/><stop offset=".594" stop-color="#4A5041" stop-opacity="1"/><stop offset=".598" stop-color="#4A5041" stop-opacity="1"/><stop offset=".602" stop-color="#4A5040" stop-opacity="1"/><stop offset=".606" stop-color="#4A503F" stop-opacity="1"/><stop offset=".609" stop-color="#4B4F3E" stop-opacity="1"/><stop offset=".613" stop-color="#4B4F3D" stop-opacity="1"/><stop offset=".617" stop-color="#4B4F3C" stop-opacity="1"/><stop offset=".621" stop-color="#4B4F3C" stop-opacity="1"/><stop offset=".625" stop-color="#4C4F3B" stop-opacity="1"/><stop offset=".629" stop-color="#4C4F3A" stop-opacity="1"/><stop offset=".633" stop-color="#4C4F39" stop-opacity="1"/><stop offset=".637" stop-color="#4C4F38" stop-opacity="1"/><stop offset=".641" stop-color="#4D4E37" stop-opacity="1"/><stop offset=".644" stop-color="#4D4E36" stop-opacity="1"/><stop offset=".648" stop-color="#4D4E36" stop-opacity="1"/><stop offset=".652" stop-color="#4D4E35" stop-opacity="1"/><stop offset=".656" stop-color="#4E4E34" stop-opacity="1"/><stop offset=".66" stop-color="#4E4E33" stop-opacity="1"/><stop offset=".664" stop-color="#4E4E32" stop-opacity="1"/><stop offset=".668" stop-color="#4E4E31" stop-opacity="1"/><stop offset=".672" stop-color="#4F4E31" stop-opacity="1"/><stop offset=".676" stop-color="#4F4D30" stop-opacity="1"/><stop offset=".68" stop-color="#4F4D2F" stop-opacity="1"/><stop offset=".684" stop-color="#4F4D2E" stop-opacity="1"/><stop offset=".688" stop-color="#504D2D" stop-opacity="1"/><stop offset=".691" stop-color="#504D2C" stop-opacity="1"/><stop offset=".695" stop-color="#504D2B" stop-opacity="1"/><stop offset=".699" stop-color="#504D2B" stop-opacity="1"/><stop offset=".703" stop-color="#514D2A" stop-opacity="1"/><stop offset=".707" stop-color="#514C29" stop-opacity="1"/><stop offset=".711" stop-color="#514C28" stop-opacity="1"/><stop offset=".715" stop-color="#514C27" stop-opacity="1"/><stop offset=".719" stop-color="#514C26" stop-opacity="1"/><stop offset=".723" stop-color="#524C26" stop-opacity="1"/><stop offset=".727" stop-color="#524C25" stop-opacity="1"/><stop offset=".731" stop-color="#524C24" stop-opacity="1"/><stop offset=".734" stop-color="#524C23" stop-opacity="1"/><stop offset=".738" stop-color="#534B22" stop-opacity="1"/><stop offset=".742" stop-color="#534B21" stop-opacity="1"/><stop offset=".746" stop-color="#534B21" stop-opacity="1"/><stop offset=".75" stop-color="#534B20" stop-opacity="1"/><stop offset=".754" stop-color="#544B1F" stop-opacity="1"/><stop offset=".758" stop-color="#544B1E" stop-opacity="1"/><stop offset=".762" stop-color="#544B1D" stop-opacity="1"/><stop offset=".766" stop-color="#544B1C" stop-opacity="1"/><stop offset=".769" stop-color="#554B1B" stop-opacity="1"/><stop offset=".773" stop-color="#554A1B" stop-opacity="1"/><stop offset=".777" stop-color="#554A1A" stop-opacity="1"/><stop offset=".781" stop-color="#554A19" stop-opacity="1"/><stop offset=".785" stop-color="#564A18" stop-opacity="1"/><stop offset=".789" stop-color="#564A17" stop-opacity="1"/><stop offset=".793" stop-color="#564A16" stop-opacity="1"/><stop offset=".797" stop-color="#564A16" stop-opacity="1"/><stop offset=".801" stop-color="#574A15" stop-opacity="1"/><stop offset=".805" stop-color="#574914" stop-opacity="1"/><stop offset=".809" stop-color="#574913" stop-opacity="1"/><stop offset=".813" stop-color="#574912" stop-opacity="1"/><stop offset=".816" stop-color="#584911" stop-opacity="1"/><stop offset=".82" stop-color="#584910" stop-opacity="1"/><stop offset=".828" stop-color="#584910" stop-opacity="1"/><stop offset=".844" stop-color="#584910" stop-opacity="1"/><stop offset=".875" stop-color="#584910" stop-opacity="1"/><stop offset="1" stop-color="#584910" stop-opacity="1"/></linearGradient><clipPath id="ca1ab26dbc"><path d="M 102 160 L 487 160 L 487 442 L 102 442 Z M 102 160" clip-rule="nonzero"/></clipPath><clipPath id="4a823cb4c0"><path d="M 206.917969 -1.382812 L 556.203125 408.476562 L 257.65625 662.898438 L -91.625 253.039062 Z M 206.917969 -1.382812" clip-rule="nonzero"/></clipPath><clipPath id="a79947a032"><path d="M 206.917969 -1.382812 L 556.203125 408.476562 L 257.65625 662.898438 L -91.625 253.039062 Z M 206.917969 -1.382812" clip-rule="nonzero"/></clipPath><clipPath id="ae080e95dd"><path d="M 0 304 L 10 304 L 10 337 L 0 337 Z M 0 304" clip-rule="nonzero"/></clipPath><clipPath id="2aa59b9e63"><path d="M 206.917969 -1.382812 L 556.203125 408.476562 L 257.65625 662.898438 L -91.625 253.039062 Z M 206.917969 -1.382812" clip-rule="nonzero"/></clipPath><clipPath id="60d264d59b"><path d="M 206.917969 -1.382812 L 556.203125 408.476562 L 257.65625 662.898438 L -91.625 253.039062 Z M 206.917969 -1.382812" clip-rule="nonzero"/></clipPath><clipPath id="3bbe810611"><path d="M 144 120 L 167 120 L 167 142 L 144 142 Z M 144 120" clip-rule="nonzero"/></clipPath><clipPath id="0b7a6ece61"><path d="M 206.917969 -1.382812 L 556.203125 408.476562 L 257.65625 662.898438 L -91.625 253.039062 Z M 206.917969 -1.382812" clip-rule="nonzero"/></clipPath><clipPath id="29e4002c83"><path d="M 206.917969 -1.382812 L 556.203125 408.476562 L 257.65625 662.898438 L -91.625 253.039062 Z M 206.917969 -1.382812" clip-rule="nonzero"/></clipPath><clipPath id="cdbdb1ce16"><path d="M 413 345.316406 L 640 345.316406 L 640 388.066406 L 413 388.066406 Z M 413 345.316406" clip-rule="nonzero"/></clipPath><clipPath id="7506b9a388"><path d="M 800 345.164062 L 1027 345.164062 L 1027 387.914062 L 800 387.914062 Z M 800 345.164062" clip-rule="nonzero"/></clipPath></defs><g mask="url(#86d815dd91)" transform="matrix(1, 0, 0, 1, -107.911813, -234.073688)"><g><g clip-path="url(#052bd50bbb)" transform="matrix(1, 0, 0, 1, 0, 368)"><g clip-path="url(#d3b57ccc88)"><g clip-path="url(#a4828736ab)"><g clip-path="url(#732db42ff7)"><g clip-path="url(#7c4166c9f1)"><path fill="url(#ff3754129e)" fill-rule="nonzero" d="M 261.011719 -85.152344 L -150.429688 265.480469 L 189.558594 664.433594 L 601 313.800781 Z M 261.011719 -85.152344"/></g></g></g></g><g clip-path="url(#ca1ab26dbc)"><g clip-path="url(#4a823cb4c0)"><g clip-path="url(#a79947a032)"><path fill="#fff" fill-opacity="1" fill-rule="nonzero" d="M 193.21875 512.890625 C 192.214844 511.710938 191.207031 510.527344 190.347656 509.222656 C 171.398438 484.59375 166.785156 452.589844 177.769531 423.347656 C 182.828125 409.863281 177.519531 395.269531 165.003906 388.351562 C 149.191406 379.65625 135.570312 367.558594 124.925781 352.675781 C 86.527344 299.253906 98.296875 223.726562 151.339844 184.382812 C 177.0625 165.265625 208.648438 157.210938 240.472656 161.691406 C 272.300781 166.171875 300.566406 182.605469 320 208.097656 C 327.859375 218.21875 333.847656 229.425781 338.128906 241.324219 C 344.980469 260.71875 364.382812 272.726562 385.3125 270.695312 C 417.175781 267.75 447.617188 281.058594 467.070312 306.277344 C 493 339.992188 492.445312 386.847656 465.890625 419.929688 C 464.375 421.730469 463.882812 424.445312 464.804688 426.71875 C 474.703125 454.472656 465.695312 484.832031 442.539062 502.78125 C 415.003906 523.953125 376.339844 520.710938 352.617188 495.5625 C 351.613281 494.382812 350.140625 493.851562 348.625 493.867188 C 347.113281 493.882812 345.554688 494.445312 344.5 495.597656 L 323.148438 516.855469 C 300.886719 539.136719 268.523438 548.367188 238.996094 540.910156 C 221.027344 536.855469 205.300781 527.0625 193.21875 512.890625 Z M 174.347656 393.640625 C 181.269531 401.761719 183.511719 413.355469 179.492188 424.175781 C 168.574219 452.59375 173.226562 484.054688 191.675781 508.089844 C 203.773438 523.777344 220.230469 534.726562 239.523438 539.4375 C 268.378906 546.707031 300.050781 537.558594 321.847656 515.925781 L 343.199219 494.667969 C 344.695312 493.136719 346.675781 492.472656 348.734375 492.5 C 350.796875 492.527344 352.792969 493.375 354.050781 494.851562 C 377.144531 519.261719 414.714844 522.414062 441.363281 501.996094 C 464.054688 484.699219 472.746094 454.863281 463.179688 428.101562 C 462.054688 424.984375 462.585938 421.726562 464.570312 419.273438 C 490.660156 386.84375 491.125 341.078125 465.699219 307.953125 C 446.621094 283.179688 416.707031 270.1875 385.535156 273.050781 C 363.640625 275.144531 343.460938 262.519531 336.402344 242.285156 C 332.246094 230.535156 326.238281 219.601562 318.648438 209.5 C 299.320312 184.429688 271.582031 168.3125 240.300781 163.875 C 208.894531 159.292969 177.730469 167.246094 152.453125 185.984375 C 100.417969 224.722656 88.757812 298.882812 126.527344 351.566406 C 137.046875 366.300781 150.289062 377.957031 165.828125 386.628906 C 169.25 388.554688 172.085938 390.984375 174.347656 393.640625 Z M 174.347656 393.640625"/></g></g></g><g clip-path="url(#ae080e95dd)"><g clip-path="url(#2aa59b9e63)"><g clip-path="url(#60d264d59b)"><path fill="#fff" fill-opacity="1" fill-rule="nonzero" d="M 6.683594 333.144531 L -4.007812 320.59375 L 8.527344 309.910156 C 9.414062 309.15625 9.523438 307.789062 8.765625 306.902344 C 8.011719 306.019531 6.644531 305.910156 5.761719 306.664062 L -6.777344 317.347656 L -17.472656 304.796875 C -18.226562 303.914062 -19.59375 303.804688 -20.476562 304.558594 C -21.363281 305.3125 -21.472656 306.679688 -20.71875 307.5625 L -10.023438 320.113281 L -22.558594 330.796875 C -23.445312 331.550781 -23.554688 332.917969 -22.796875 333.804688 C -22.042969 334.691406 -20.675781 334.800781 -19.792969 334.046875 L -7.253906 323.359375 L 3.441406 335.910156 C 4.195312 336.796875 5.5625 336.90625 6.445312 336.152344 C 7.332031 335.398438 7.441406 334.03125 6.683594 333.144531 Z M 6.683594 333.144531"/></g></g></g><g clip-path="url(#3bbe810611)"><g clip-path="url(#0b7a6ece61)"><g clip-path="url(#29e4002c83)"><path fill="#fff" fill-opacity="1" fill-rule="nonzero" d="M 164.949219 139.398438 L 157.777344 130.984375 L 166.1875 123.816406 C 166.777344 123.316406 166.839844 122.496094 166.339844 121.90625 C 165.835938 121.3125 165.015625 121.25 164.425781 121.75 L 156.015625 128.917969 L 148.84375 120.5 C 148.34375 119.910156 147.523438 119.84375 146.933594 120.347656 C 146.34375 120.851562 146.277344 121.671875 146.78125 122.261719 L 153.953125 130.675781 L 145.398438 137.964844 C 144.808594 138.46875 144.742188 139.289062 145.246094 139.878906 C 145.75 140.46875 146.570312 140.535156 147.160156 140.035156 L 155.566406 132.867188 L 162.738281 141.285156 C 163.242188 141.875 164.0625 141.941406 164.652344 141.4375 C 165.515625 140.957031 165.453125 139.988281 164.949219 139.398438 Z M 164.949219 139.398438"/></g></g></g></g></g></g><g fill="#fff" fill-opacity="1"><g><g><path d="M 8.3125 -4.109375 L 5.921875 -4.109375 L 5.921875 0 L 1.546875 0 L 1.546875 -15.484375 L 8.625 -15.484375 C 10.03125 -15.484375 11.25 -15.25 12.28125 -14.78125 C 13.3125 -14.320312 14.109375 -13.660156 14.671875 -12.796875 C 15.234375 -11.929688 15.515625 -10.914062 15.515625 -9.75 C 15.515625 -8.632812 15.25 -7.660156 14.71875 -6.828125 C 14.195312 -5.992188 13.453125 -5.34375 12.484375 -4.875 L 15.8125 0 L 11.125 0 Z M 11.078125 -9.75 C 11.078125 -10.476562 10.847656 -11.039062 10.390625 -11.4375 C 9.941406 -11.832031 9.265625 -12.03125 8.359375 -12.03125 L 5.921875 -12.03125 L 5.921875 -7.5 L 8.359375 -7.5 C 9.265625 -7.5 9.941406 -7.691406 10.390625 -8.078125 C 10.847656 -8.472656 11.078125 -9.03125 11.078125 -9.75 Z M 11.078125 -9.75" transform="matrix(1, 0, 0, 1, -107.911813, -234.073688) translate(578.282108, 374.557199)"/></g></g></g><g fill="#fff" fill-opacity="1"><g><g><path d="M 9.359375 0.3125 C 7.722656 0.3125 6.25 -0.03125 4.9375 -0.71875 C 3.632812 -1.414062 2.609375 -2.375 1.859375 -3.59375 C 1.117188 -4.820312 0.75 -6.207031 0.75 -7.75 C 0.75 -9.28125 1.117188 -10.65625 1.859375 -11.875 C 2.609375 -13.101562 3.632812 -14.0625 4.9375 -14.75 C 6.25 -15.445312 7.722656 -15.796875 9.359375 -15.796875 C 10.992188 -15.796875 12.460938 -15.445312 13.765625 -14.75 C 15.078125 -14.0625 16.101562 -13.101562 16.84375 -11.875 C 17.59375 -10.65625 17.96875 -9.28125 17.96875 -7.75 C 17.96875 -6.207031 17.59375 -4.820312 16.84375 -3.59375 C 16.101562 -2.375 15.078125 -1.414062 13.765625 -0.71875 C 12.460938 -0.03125 10.992188 0.3125 9.359375 0.3125 Z M 9.359375 -3.3125 C 10.140625 -3.3125 10.847656 -3.492188 11.484375 -3.859375 C 12.117188 -4.234375 12.617188 -4.753906 12.984375 -5.421875 C 13.359375 -6.097656 13.546875 -6.875 13.546875 -7.75 C 13.546875 -8.613281 13.359375 -9.378906 12.984375 -10.046875 C 12.617188 -10.722656 12.117188 -11.242188 11.484375 -11.609375 C 10.847656 -11.984375 10.140625 -12.171875 9.359375 -12.171875 C 8.578125 -12.171875 7.867188 -11.984375 7.234375 -11.609375 C 6.597656 -11.242188 6.09375 -10.722656 5.71875 -10.046875 C 5.351562 -9.378906 5.171875 -8.613281 5.171875 -7.75 C 5.171875 -6.875 5.351562 -6.097656 5.71875 -5.421875 C 6.09375 -4.753906 6.597656 -4.234375 7.234375 -3.859375 C 7.867188 -3.492188 8.578125 -3.3125 9.359375 -3.3125 Z M 9.359375 -3.3125" transform="matrix(1, 0, 0, 1, -107.911813, -234.073688) translate(594.651891, 374.557199)"/></g></g></g><g fill="#fff" fill-opacity="1"><g><g><path d="M 13.453125 -8.078125 C 14.335938 -7.765625 15.03125 -7.28125 15.53125 -6.625 C 16.03125 -5.96875 16.28125 -5.175781 16.28125 -4.25 C 16.28125 -2.894531 15.734375 -1.847656 14.640625 -1.109375 C 13.554688 -0.367188 11.976562 0 9.90625 0 L 1.546875 0 L 1.546875 -15.484375 L 9.46875 -15.484375 C 11.445312 -15.484375 12.953125 -15.117188 13.984375 -14.390625 C 15.015625 -13.660156 15.53125 -12.675781 15.53125 -11.4375 C 15.53125 -10.695312 15.347656 -10.035156 14.984375 -9.453125 C 14.628906 -8.867188 14.117188 -8.410156 13.453125 -8.078125 Z M 5.890625 -12.328125 L 5.890625 -9.34375 L 8.890625 -9.34375 C 10.367188 -9.34375 11.109375 -9.84375 11.109375 -10.84375 C 11.109375 -11.832031 10.367188 -12.328125 8.890625 -12.328125 Z M 9.5625 -3.15625 C 11.09375 -3.15625 11.859375 -3.679688 11.859375 -4.734375 C 11.859375 -5.785156 11.09375 -6.3125 9.5625 -6.3125 L 5.890625 -6.3125 L 5.890625 -3.15625 Z M 9.5625 -3.15625" transform="matrix(1, 0, 0, 1, -107.911813, -234.073688) translate(613.366535, 374.557199)"/></g></g></g><g fill="#fff" fill-opacity="1"><g><g><path d="M 9.359375 0.3125 C 7.722656 0.3125 6.25 -0.03125 4.9375 -0.71875 C 3.632812 -1.414062 2.609375 -2.375 1.859375 -3.59375 C 1.117188 -4.820312 0.75 -6.207031 0.75 -7.75 C 0.75 -9.28125 1.117188 -10.65625 1.859375 -11.875 C 2.609375 -13.101562 3.632812 -14.0625 4.9375 -14.75 C 6.25 -15.445312 7.722656 -15.796875 9.359375 -15.796875 C 10.992188 -15.796875 12.460938 -15.445312 13.765625 -14.75 C 15.078125 -14.0625 16.101562 -13.101562 16.84375 -11.875 C 17.59375 -10.65625 17.96875 -9.28125 17.96875 -7.75 C 17.96875 -6.207031 17.59375 -4.820312 16.84375 -3.59375 C 16.101562 -2.375 15.078125 -1.414062 13.765625 -0.71875 C 12.460938 -0.03125 10.992188 0.3125 9.359375 0.3125 Z M 9.359375 -3.3125 C 10.140625 -3.3125 10.847656 -3.492188 11.484375 -3.859375 C 12.117188 -4.234375 12.617188 -4.753906 12.984375 -5.421875 C 13.359375 -6.097656 13.546875 -6.875 13.546875 -7.75 C 13.546875 -8.613281 13.359375 -9.378906 12.984375 -10.046875 C 12.617188 -10.722656 12.117188 -11.242188 11.484375 -11.609375 C 10.847656 -11.984375 10.140625 -12.171875 9.359375 -12.171875 C 8.578125 -12.171875 7.867188 -11.984375 7.234375 -11.609375 C 6.597656 -11.242188 6.09375 -10.722656 5.71875 -10.046875 C 5.351562 -9.378906 5.171875 -8.613281 5.171875 -7.75 C 5.171875 -6.875 5.351562 -6.097656 5.71875 -5.421875 C 6.09375 -4.753906 6.597656 -4.234375 7.234375 -3.859375 C 7.867188 -3.492188 8.578125 -3.3125 9.359375 -3.3125 Z M 9.359375 -3.3125" transform="matrix(1, 0, 0, 1, -107.911813, -234.073688) translate(630.37784, 374.557199)"/></g></g></g><g fill="#fff" fill-opacity="1"><g><g><path d="M 4.84375 -12.015625 L 0.09375 -12.015625 L 0.09375 -15.484375 L 13.953125 -15.484375 L 13.953125 -12.015625 L 9.21875 -12.015625 L 9.21875 0 L 4.84375 0 Z M 4.84375 -12.015625" transform="matrix(1, 0, 0, 1, -107.911813, -234.073688) translate(649.092484, 374.557199)"/></g></g></g><g fill="#fff" fill-opacity="1"><g><g><path d="M 1.546875 -15.484375 L 5.921875 -15.484375 L 5.921875 0 L 1.546875 0 Z M 1.546875 -15.484375" transform="matrix(1, 0, 0, 1, -107.911813, -234.073688) translate(663.139537, 374.557199)"/></g></g></g><g fill="#fff" fill-opacity="1"><g><g><path d="M 9.265625 0.3125 C 7.648438 0.3125 6.195312 -0.03125 4.90625 -0.71875 C 3.613281 -1.40625 2.597656 -2.359375 1.859375 -3.578125 C 1.117188 -4.804688 0.75 -6.195312 0.75 -7.75 C 0.75 -9.289062 1.117188 -10.671875 1.859375 -11.890625 C 2.597656 -13.117188 3.613281 -14.078125 4.90625 -14.765625 C 6.195312 -15.453125 7.648438 -15.796875 9.265625 -15.796875 C 10.679688 -15.796875 11.957031 -15.546875 13.09375 -15.046875 C 14.226562 -14.546875 15.175781 -13.820312 15.9375 -12.875 L 13.140625 -10.359375 C 12.140625 -11.566406 10.921875 -12.171875 9.484375 -12.171875 C 8.648438 -12.171875 7.90625 -11.984375 7.25 -11.609375 C 6.59375 -11.242188 6.082031 -10.722656 5.71875 -10.046875 C 5.351562 -9.378906 5.171875 -8.613281 5.171875 -7.75 C 5.171875 -6.875 5.351562 -6.097656 5.71875 -5.421875 C 6.082031 -4.753906 6.59375 -4.234375 7.25 -3.859375 C 7.90625 -3.492188 8.648438 -3.3125 9.484375 -3.3125 C 10.921875 -3.3125 12.140625 -3.921875 13.140625 -5.140625 L 15.9375 -2.609375 C 15.175781 -1.660156 14.226562 -0.9375 13.09375 -0.4375 C 11.957031 0.0625 10.679688 0.3125 9.265625 0.3125 Z M 9.265625 0.3125" transform="matrix(1, 0, 0, 1, -107.911813, -234.073688) translate(670.638671, 374.557199)"/></g></g></g><g fill="#fff" fill-opacity="1"><g><g><path d="M 6.984375 0.3125 C 5.734375 0.3125 4.519531 0.15625 3.34375 -0.15625 C 2.164062 -0.46875 1.207031 -0.878906 0.46875 -1.390625 L 1.90625 -4.625 C 2.59375 -4.164062 3.394531 -3.796875 4.3125 -3.515625 C 5.226562 -3.234375 6.128906 -3.09375 7.015625 -3.09375 C 8.691406 -3.09375 9.53125 -3.515625 9.53125 -4.359375 C 9.53125 -4.796875 9.289062 -5.117188 8.8125 -5.328125 C 8.332031 -5.546875 7.5625 -5.773438 6.5 -6.015625 C 5.332031 -6.265625 4.359375 -6.53125 3.578125 -6.8125 C 2.796875 -7.101562 2.125 -7.566406 1.5625 -8.203125 C 1.007812 -8.835938 0.734375 -9.695312 0.734375 -10.78125 C 0.734375 -11.71875 0.988281 -12.566406 1.5 -13.328125 C 2.019531 -14.085938 2.789062 -14.6875 3.8125 -15.125 C 4.84375 -15.570312 6.101562 -15.796875 7.59375 -15.796875 C 8.601562 -15.796875 9.601562 -15.679688 10.59375 -15.453125 C 11.582031 -15.222656 12.453125 -14.890625 13.203125 -14.453125 L 11.859375 -11.1875 C 10.378906 -11.988281 8.945312 -12.390625 7.5625 -12.390625 C 6.695312 -12.390625 6.0625 -12.257812 5.65625 -12 C 5.257812 -11.738281 5.0625 -11.40625 5.0625 -11 C 5.0625 -10.582031 5.296875 -10.269531 5.765625 -10.0625 C 6.242188 -9.851562 7.003906 -9.640625 8.046875 -9.421875 C 9.234375 -9.171875 10.210938 -8.898438 10.984375 -8.609375 C 11.753906 -8.328125 12.421875 -7.875 12.984375 -7.25 C 13.554688 -6.625 13.84375 -5.769531 13.84375 -4.6875 C 13.84375 -3.757812 13.582031 -2.921875 13.0625 -2.171875 C 12.550781 -1.421875 11.78125 -0.816406 10.75 -0.359375 C 9.71875 0.0859375 8.460938 0.3125 6.984375 0.3125 Z M 6.984375 0.3125" transform="matrix(1, 0, 0, 1, -107.911813, -234.073688) translate(686.964213, 374.557199)"/></g></g></g><g fill="#fff" fill-opacity="1"><g><g><path d="M 16.28125 -15.484375 L 16.28125 0 L 11.90625 0 L 11.90625 -6.046875 L 5.921875 -6.046875 L 5.921875 0 L 1.546875 0 L 1.546875 -15.484375 L 5.921875 -15.484375 L 5.921875 -9.671875 L 11.90625 -9.671875 L 11.90625 -15.484375 Z M 16.28125 -15.484375" transform="matrix(1, 0, 0, 1, -107.911813, -234.073688) translate(707.714025, 374.557199)"/></g></g></g><g fill="#fff" fill-opacity="1"><g><g><path d="M 11.921875 -3.015625 L 5.375 -3.015625 L 4.15625 0 L -0.3125 0 L 6.53125 -15.484375 L 10.84375 -15.484375 L 17.703125 0 L 13.140625 0 Z M 10.640625 -6.234375 L 8.65625 -11.1875 L 6.65625 -6.234375 Z M 10.640625 -6.234375" transform="matrix(1, 0, 0, 1, -107.911813, -234.073688) translate(725.543825, 374.557199)"/></g></g></g><g fill="#fff" fill-opacity="1"><g><g><path d="M 9.265625 0.3125 C 7.648438 0.3125 6.195312 -0.03125 4.90625 -0.71875 C 3.613281 -1.40625 2.597656 -2.359375 1.859375 -3.578125 C 1.117188 -4.804688 0.75 -6.195312 0.75 -7.75 C 0.75 -9.289062 1.117188 -10.671875 1.859375 -11.890625 C 2.597656 -13.117188 3.613281 -14.078125 4.90625 -14.765625 C 6.195312 -15.453125 7.648438 -15.796875 9.265625 -15.796875 C 10.679688 -15.796875 11.957031 -15.546875 13.09375 -15.046875 C 14.226562 -14.546875 15.175781 -13.820312 15.9375 -12.875 L 13.140625 -10.359375 C 12.140625 -11.566406 10.921875 -12.171875 9.484375 -12.171875 C 8.648438 -12.171875 7.90625 -11.984375 7.25 -11.609375 C 6.59375 -11.242188 6.082031 -10.722656 5.71875 -10.046875 C 5.351562 -9.378906 5.171875 -8.613281 5.171875 -7.75 C 5.171875 -6.875 5.351562 -6.097656 5.71875 -5.421875 C 6.082031 -4.753906 6.59375 -4.234375 7.25 -3.859375 C 7.90625 -3.492188 8.648438 -3.3125 9.484375 -3.3125 C 10.921875 -3.3125 12.140625 -3.921875 13.140625 -5.140625 L 15.9375 -2.609375 C 15.175781 -1.660156 14.226562 -0.9375 13.09375 -0.4375 C 11.957031 0.0625 10.679688 0.3125 9.265625 0.3125 Z M 9.265625 0.3125" transform="matrix(1, 0, 0, 1, -107.911813, -234.073688) translate(742.931196, 374.557199)"/></g></g></g><g fill="#fff" fill-opacity="1"><g><g><path d="M 7.515625 -5.625 L 5.890625 -3.875 L 5.890625 0 L 1.546875 0 L 1.546875 -15.484375 L 5.890625 -15.484375 L 5.890625 -9.046875 L 11.875 -15.484375 L 16.703125 -15.484375 L 10.375 -8.625 L 17.03125 0 L 11.953125 0 Z M 7.515625 -5.625" transform="matrix(1, 0, 0, 1, -107.911813, -234.073688) translate(759.256738, 374.557199)"/></g></g></g><g fill="#fff" fill-opacity="1"><g><g><path d="M 11.921875 -3.015625 L 5.375 -3.015625 L 4.15625 0 L -0.3125 0 L 6.53125 -15.484375 L 10.84375 -15.484375 L 17.703125 0 L 13.140625 0 Z M 10.640625 -6.234375 L 8.65625 -11.1875 L 6.65625 -6.234375 Z M 10.640625 -6.234375" transform="matrix(1, 0, 0, 1, -107.911813, -234.073688) translate(775.891997, 374.557199)"/></g></g></g><g fill="#fff" fill-opacity="1"><g><g><path d="M 4.84375 -12.015625 L 0.09375 -12.015625 L 0.09375 -15.484375 L 13.953125 -15.484375 L 13.953125 -12.015625 L 9.21875 -12.015625 L 9.21875 0 L 4.84375 0 Z M 4.84375 -12.015625" transform="matrix(1, 0, 0, 1, -107.911813, -234.073688) translate(793.279369, 374.557199)"/></g></g></g><g fill="#fff" fill-opacity="1"><g><g><path d="M 16.28125 -15.484375 L 16.28125 0 L 11.90625 0 L 11.90625 -6.046875 L 5.921875 -6.046875 L 5.921875 0 L 1.546875 0 L 1.546875 -15.484375 L 5.921875 -15.484375 L 5.921875 -9.671875 L 11.90625 -9.671875 L 11.90625 -15.484375 Z M 16.28125 -15.484375" transform="matrix(1, 0, 0, 1, -107.911813, -234.073688) translate(807.326432, 374.557199)"/></g></g></g><g fill="#fff" fill-opacity="1"><g><g><path d="M 9.359375 0.3125 C 7.722656 0.3125 6.25 -0.03125 4.9375 -0.71875 C 3.632812 -1.414062 2.609375 -2.375 1.859375 -3.59375 C 1.117188 -4.820312 0.75 -6.207031 0.75 -7.75 C 0.75 -9.28125 1.117188 -10.65625 1.859375 -11.875 C 2.609375 -13.101562 3.632812 -14.0625 4.9375 -14.75 C 6.25 -15.445312 7.722656 -15.796875 9.359375 -15.796875 C 10.992188 -15.796875 12.460938 -15.445312 13.765625 -14.75 C 15.078125 -14.0625 16.101562 -13.101562 16.84375 -11.875 C 17.59375 -10.65625 17.96875 -9.28125 17.96875 -7.75 C 17.96875 -6.207031 17.59375 -4.820312 16.84375 -3.59375 C 16.101562 -2.375 15.078125 -1.414062 13.765625 -0.71875 C 12.460938 -0.03125 10.992188 0.3125 9.359375 0.3125 Z M 9.359375 -3.3125 C 10.140625 -3.3125 10.847656 -3.492188 11.484375 -3.859375 C 12.117188 -4.234375 12.617188 -4.753906 12.984375 -5.421875 C 13.359375 -6.097656 13.546875 -6.875 13.546875 -7.75 C 13.546875 -8.613281 13.359375 -9.378906 12.984375 -10.046875 C 12.617188 -10.722656 12.117188 -11.242188 11.484375 -11.609375 C 10.847656 -11.984375 10.140625 -12.171875 9.359375 -12.171875 C 8.578125 -12.171875 7.867188 -11.984375 7.234375 -11.609375 C 6.597656 -11.242188 6.09375 -10.722656 5.71875 -10.046875 C 5.351562 -9.378906 5.171875 -8.613281 5.171875 -7.75 C 5.171875 -6.875 5.351562 -6.097656 5.71875 -5.421875 C 6.09375 -4.753906 6.597656 -4.234375 7.234375 -3.859375 C 7.867188 -3.492188 8.578125 -3.3125 9.359375 -3.3125 Z M 9.359375 -3.3125" transform="matrix(1, 0, 0, 1, -107.911813, -234.073688) translate(825.156232, 374.557199)"/></g></g></g><g fill="#fff" fill-opacity="1"><g><g><path d="M 16.28125 -15.484375 L 16.28125 0 L 12.671875 0 L 5.84375 -8.25 L 5.84375 0 L 1.546875 0 L 1.546875 -15.484375 L 5.15625 -15.484375 L 11.984375 -7.234375 L 11.984375 -15.484375 Z M 16.28125 -15.484375" transform="matrix(1, 0, 0, 1, -107.911813, -234.073688) translate(843.870887, 374.557199)"/></g></g></g><g clip-path="url(#cdbdb1ce16)" transform="matrix(1, 0, 0, 1, -107.911813, -234.073688)"><path fill="#ffecb3" fill-opacity="1" fill-rule="nonzero" d="M 512.707031 367.222656 L 534.554688 388.066406 L 639.09375 388.066406 L 639.09375 387.109375 L 534.980469 387.109375 L 513.5625 366.691406 L 534.980469 346.273438 L 639.09375 346.273438 L 639.09375 345.316406 L 534.554688 345.316406 L 512.707031 366.160156 L 413.285156 366.160156 L 413.285156 367.222656 Z M 512.707031 367.222656"/></g><g clip-path="url(#7506b9a388)" transform="matrix(1, 0, 0, 1, -107.911813, -234.073688)"><path fill="#ffecb3" fill-opacity="1" fill-rule="nonzero" d="M 927.289062 366.007812 L 905.445312 345.164062 L 800.90625 345.164062 L 800.90625 346.121094 L 905.019531 346.121094 L 926.4375 366.539062 L 905.019531 386.957031 L 800.90625 386.957031 L 800.90625 387.914062 L 905.445312 387.914062 L 927.289062 367.070312 L 1026.714844 367.070312 L 1026.714844 366.007812 Z M 927.289062 366.007812"/></g></svg>