<?xml version="1.0" encoding="utf-8"?>
<svg viewBox="304.736 110.793 614.129 43.468" xmlns="http://www.w3.org/2000/svg">
  <defs>
    <mask id="86d815dd91">
      <g filter="url(#a5858fc0a9)">
        <rect x="-144" width="1728" fill="#000000" y="-80.999999" height="971.999992" fill-opacity="0.3373"/>
      </g>
    </mask>
    <filter x="0%" y="0%" width="100%" height="100%" id="a5858fc0a9">
      <feColorMatrix values="0 0 0 0 1 0 0 0 0 1 0 0 0 0 1 0 0 0 1 0" color-interpolation-filters="sRGB"/>
    </filter>
    <clipPath id="052bd50bbb">
      <rect x="0" width="557" y="0" height="442"/>
    </clipPath>
    <clipPath id="d3b57ccc88">
      <path d="M 0 148 L 443 148 L 443 442 L 0 442 Z M 0 148 " clip-rule="nonzero"/>
    </clipPath>
    <clipPath id="a4828736ab">
      <path d="M 206.917969 -1.382812 L 556.203125 408.476562 L 257.65625 662.898438 L -91.625 253.039062 Z M 206.917969 -1.382812 " clip-rule="nonzero"/>
    </clipPath>
    <clipPath id="732db42ff7">
      <path d="M 206.917969 -1.382812 L 556.203125 408.476562 L 257.65625 662.898438 L -91.625 253.039062 Z M 206.917969 -1.382812 " clip-rule="nonzero"/>
    </clipPath>
    <clipPath id="7c4166c9f1">
      <path d="M 419.351562 448.378906 C 447.746094 419.847656 450.566406 373.859375 426.144531 341.917969 C 407.34375 317.164062 377.527344 306.378906 349.277344 310.578125 C 335.226562 312.613281 321.703125 304.511719 316.285156 291.285156 C 312.148438 281.050781 306.199219 271.082031 298.652344 262.226562 C 276.507812 236.242188 244.65625 223.367188 212.796875 224.527344 C 194.308594 225.242188 177.21875 215.34375 167.601562 199.578125 C 163.476562 192.644531 158.363281 186.046875 152.507812 180.074219 C 114.601562 141.273438 52.894531 137.28125 10.230469 170.582031 C -38.289062 208.363281 -44.957031 278.523438 -5.449219 324.882812 C 10.90625 344.074219 32.515625 355.988281 55.257812 360.5625 C 78.273438 365.160156 94.542969 385.449219 93.917969 408.917969 C 93.265625 436.234375 102.894531 463.964844 123.449219 485.695312 C 161.269531 525.59375 224.300781 530.238281 267.429688 496.289062 C 272.421875 492.289062 276.867188 488.246094 281.085938 483.632812 C 295.105469 468.113281 316.488281 462.128906 336.46875 468.546875 C 364.207031 477.785156 396.625 471.3125 419.351562 448.378906 Z M 419.351562 448.378906 " clip-rule="nonzero"/>
    </clipPath>
    <linearGradient x1="-23.697247" gradientTransform="matrix(1.258181, 1.476392, -1.475031, 1.257022, 207.758213, 1.992492)" y1="208.517659" x2="304.397205" gradientUnits="userSpaceOnUse" y2="90.588487" id="ff3754129e">
      <stop stop-opacity="1" stop-color="rgb(16.099548%, 37.599182%, 69.799805%)" offset="0"/>
      <stop stop-opacity="1" stop-color="rgb(16.099548%, 37.599182%, 69.799805%)" offset="0.0625"/>
      <stop stop-opacity="1" stop-color="rgb(16.099548%, 37.599182%, 69.799805%)" offset="0.0703"/>
      <stop stop-opacity="1" stop-color="rgb(16.171265%, 37.564087%, 69.549561%)" offset="0.0742"/>
      <stop stop-opacity="1" stop-color="rgb(16.244507%, 37.528992%, 69.299316%)" offset="0.0781"/>
      <stop stop-opacity="1" stop-color="rgb(16.339111%, 37.481689%, 68.968201%)" offset="0.082"/>
      <stop stop-opacity="1" stop-color="rgb(16.435242%, 37.434387%, 68.638611%)" offset="0.0859"/>
      <stop stop-opacity="1" stop-color="rgb(16.531372%, 37.387085%, 68.307495%)" offset="0.0898"/>
      <stop stop-opacity="1" stop-color="rgb(16.627502%, 37.341309%, 67.977905%)" offset="0.0938"/>
      <stop stop-opacity="1" stop-color="rgb(16.722107%, 37.294006%, 67.64679%)" offset="0.0977"/>
      <stop stop-opacity="1" stop-color="rgb(16.818237%, 37.246704%, 67.315674%)" offset="0.1016"/>
      <stop stop-opacity="1" stop-color="rgb(16.914368%, 37.199402%, 66.984558%)" offset="0.1055"/>
      <stop stop-opacity="1" stop-color="rgb(17.010498%, 37.153625%, 66.654968%)" offset="0.1094"/>
      <stop stop-opacity="1" stop-color="rgb(17.106628%, 37.106323%, 66.323853%)" offset="0.1133"/>
      <stop stop-opacity="1" stop-color="rgb(17.202759%, 37.059021%, 65.992737%)" offset="0.1172"/>
      <stop stop-opacity="1" stop-color="rgb(17.297363%, 37.011719%, 65.661621%)" offset="0.1211"/>
      <stop stop-opacity="1" stop-color="rgb(17.393494%, 36.965942%, 65.332031%)" offset="0.125"/>
      <stop stop-opacity="1" stop-color="rgb(17.489624%, 36.91864%, 65.000916%)" offset="0.1289"/>
      <stop stop-opacity="1" stop-color="rgb(17.585754%, 36.872864%, 64.6698%)" offset="0.1328"/>
      <stop stop-opacity="1" stop-color="rgb(17.680359%, 36.825562%, 64.338684%)" offset="0.1367"/>
      <stop stop-opacity="1" stop-color="rgb(17.776489%, 36.778259%, 64.009094%)" offset="0.1406"/>
      <stop stop-opacity="1" stop-color="rgb(17.87262%, 36.730957%, 63.677979%)" offset="0.1445"/>
      <stop stop-opacity="1" stop-color="rgb(17.96875%, 36.685181%, 63.346863%)" offset="0.1484"/>
      <stop stop-opacity="1" stop-color="rgb(18.06488%, 36.637878%, 63.015747%)" offset="0.1523"/>
      <stop stop-opacity="1" stop-color="rgb(18.161011%, 36.590576%, 62.686157%)" offset="0.1563"/>
      <stop stop-opacity="1" stop-color="rgb(18.255615%, 36.543274%, 62.355042%)" offset="0.1602"/>
      <stop stop-opacity="1" stop-color="rgb(18.351746%, 36.497498%, 62.025452%)" offset="0.1641"/>
      <stop stop-opacity="1" stop-color="rgb(18.447876%, 36.450195%, 61.694336%)" offset="0.168"/>
      <stop stop-opacity="1" stop-color="rgb(18.544006%, 36.402893%, 61.36322%)" offset="0.1719"/>
      <stop stop-opacity="1" stop-color="rgb(18.638611%, 36.355591%, 61.032104%)" offset="0.1758"/>
      <stop stop-opacity="1" stop-color="rgb(18.734741%, 36.309814%, 60.702515%)" offset="0.1797"/>
      <stop stop-opacity="1" stop-color="rgb(18.830872%, 36.262512%, 60.371399%)" offset="0.1836"/>
      <stop stop-opacity="1" stop-color="rgb(18.927002%, 36.216736%, 60.040283%)" offset="0.1875"/>
      <stop stop-opacity="1" stop-color="rgb(19.023132%, 36.169434%, 59.709167%)" offset="0.1914"/>
      <stop stop-opacity="1" stop-color="rgb(19.119263%, 36.122131%, 59.379578%)" offset="0.1953"/>
      <stop stop-opacity="1" stop-color="rgb(19.213867%, 36.074829%, 59.048462%)" offset="0.1992"/>
      <stop stop-opacity="1" stop-color="rgb(19.309998%, 36.029053%, 58.717346%)" offset="0.2031"/>
      <stop stop-opacity="1" stop-color="rgb(19.406128%, 35.98175%, 58.38623%)" offset="0.207"/>
      <stop stop-opacity="1" stop-color="rgb(19.502258%, 35.934448%, 58.056641%)" offset="0.2109"/>
      <stop stop-opacity="1" stop-color="rgb(19.596863%, 35.887146%, 57.725525%)" offset="0.2148"/>
      <stop stop-opacity="1" stop-color="rgb(19.692993%, 35.84137%, 57.394409%)" offset="0.2188"/>
      <stop stop-opacity="1" stop-color="rgb(19.789124%, 35.794067%, 57.063293%)" offset="0.2227"/>
      <stop stop-opacity="1" stop-color="rgb(19.885254%, 35.746765%, 56.733704%)" offset="0.2266"/>
      <stop stop-opacity="1" stop-color="rgb(19.981384%, 35.699463%, 56.402588%)" offset="0.2305"/>
      <stop stop-opacity="1" stop-color="rgb(20.077515%, 35.653687%, 56.072998%)" offset="0.2344"/>
      <stop stop-opacity="1" stop-color="rgb(20.172119%, 35.606384%, 55.741882%)" offset="0.2383"/>
      <stop stop-opacity="1" stop-color="rgb(20.26825%, 35.560608%, 55.410767%)" offset="0.2422"/>
      <stop stop-opacity="1" stop-color="rgb(20.36438%, 35.513306%, 55.079651%)" offset="0.2461"/>
      <stop stop-opacity="1" stop-color="rgb(20.46051%, 35.466003%, 54.750061%)" offset="0.25"/>
      <stop stop-opacity="1" stop-color="rgb(20.555115%, 35.418701%, 54.418945%)" offset="0.2539"/>
      <stop stop-opacity="1" stop-color="rgb(20.651245%, 35.372925%, 54.08783%)" offset="0.2578"/>
      <stop stop-opacity="1" stop-color="rgb(20.747375%, 35.325623%, 53.756714%)" offset="0.2617"/>
      <stop stop-opacity="1" stop-color="rgb(20.843506%, 35.27832%, 53.427124%)" offset="0.2656"/>
      <stop stop-opacity="1" stop-color="rgb(20.939636%, 35.231018%, 53.096008%)" offset="0.2695"/>
      <stop stop-opacity="1" stop-color="rgb(21.035767%, 35.185242%, 52.764893%)" offset="0.2734"/>
      <stop stop-opacity="1" stop-color="rgb(21.130371%, 35.137939%, 52.433777%)" offset="0.2773"/>
      <stop stop-opacity="1" stop-color="rgb(21.226501%, 35.090637%, 52.104187%)" offset="0.2813"/>
      <stop stop-opacity="1" stop-color="rgb(21.322632%, 35.043335%, 51.773071%)" offset="0.2852"/>
      <stop stop-opacity="1" stop-color="rgb(21.418762%, 34.997559%, 51.441956%)" offset="0.2891"/>
      <stop stop-opacity="1" stop-color="rgb(21.513367%, 34.950256%, 51.11084%)" offset="0.293"/>
      <stop stop-opacity="1" stop-color="rgb(21.609497%, 34.90448%, 50.78125%)" offset="0.2969"/>
      <stop stop-opacity="1" stop-color="rgb(21.705627%, 34.857178%, 50.450134%)" offset="0.3008"/>
      <stop stop-opacity="1" stop-color="rgb(21.801758%, 34.809875%, 50.120544%)" offset="0.3047"/>
      <stop stop-opacity="1" stop-color="rgb(21.897888%, 34.762573%, 49.789429%)" offset="0.3086"/>
      <stop stop-opacity="1" stop-color="rgb(21.994019%, 34.716797%, 49.458313%)" offset="0.3125"/>
      <stop stop-opacity="1" stop-color="rgb(22.088623%, 34.669495%, 49.127197%)" offset="0.3164"/>
      <stop stop-opacity="1" stop-color="rgb(22.184753%, 34.622192%, 48.797607%)" offset="0.3203"/>
      <stop stop-opacity="1" stop-color="rgb(22.280884%, 34.57489%, 48.466492%)" offset="0.3242"/>
      <stop stop-opacity="1" stop-color="rgb(22.377014%, 34.529114%, 48.135376%)" offset="0.3281"/>
      <stop stop-opacity="1" stop-color="rgb(22.471619%, 34.481812%, 47.80426%)" offset="0.332"/>
      <stop stop-opacity="1" stop-color="rgb(22.567749%, 34.434509%, 47.47467%)" offset="0.3359"/>
      <stop stop-opacity="1" stop-color="rgb(22.663879%, 34.387207%, 47.143555%)" offset="0.3398"/>
      <stop stop-opacity="1" stop-color="rgb(22.76001%, 34.341431%, 46.812439%)" offset="0.3438"/>
      <stop stop-opacity="1" stop-color="rgb(22.854614%, 34.294128%, 46.481323%)" offset="0.3477"/>
      <stop stop-opacity="1" stop-color="rgb(22.950745%, 34.248352%, 46.151733%)" offset="0.3516"/>
      <stop stop-opacity="1" stop-color="rgb(23.046875%, 34.20105%, 45.820618%)" offset="0.3555"/>
      <stop stop-opacity="1" stop-color="rgb(23.143005%, 34.153748%, 45.489502%)" offset="0.3594"/>
      <stop stop-opacity="1" stop-color="rgb(23.239136%, 34.106445%, 45.158386%)" offset="0.3633"/>
      <stop stop-opacity="1" stop-color="rgb(23.335266%, 34.060669%, 44.828796%)" offset="0.3672"/>
      <stop stop-opacity="1" stop-color="rgb(23.429871%, 34.013367%, 44.497681%)" offset="0.3711"/>
      <stop stop-opacity="1" stop-color="rgb(23.526001%, 33.966064%, 44.168091%)" offset="0.375"/>
      <stop stop-opacity="1" stop-color="rgb(23.622131%, 33.918762%, 43.836975%)" offset="0.3789"/>
      <stop stop-opacity="1" stop-color="rgb(23.718262%, 33.872986%, 43.505859%)" offset="0.3828"/>
      <stop stop-opacity="1" stop-color="rgb(23.812866%, 33.825684%, 43.174744%)" offset="0.3867"/>
      <stop stop-opacity="1" stop-color="rgb(23.908997%, 33.778381%, 42.845154%)" offset="0.3906"/>
      <stop stop-opacity="1" stop-color="rgb(24.005127%, 33.731079%, 42.514038%)" offset="0.3945"/>
      <stop stop-opacity="1" stop-color="rgb(24.101257%, 33.685303%, 42.182922%)" offset="0.3984"/>
      <stop stop-opacity="1" stop-color="rgb(24.197388%, 33.638%, 41.851807%)" offset="0.4023"/>
      <stop stop-opacity="1" stop-color="rgb(24.293518%, 33.590698%, 41.522217%)" offset="0.4063"/>
      <stop stop-opacity="1" stop-color="rgb(24.388123%, 33.543396%, 41.191101%)" offset="0.4102"/>
      <stop stop-opacity="1" stop-color="rgb(24.484253%, 33.49762%, 40.859985%)" offset="0.4141"/>
      <stop stop-opacity="1" stop-color="rgb(24.580383%, 33.450317%, 40.52887%)" offset="0.418"/>
      <stop stop-opacity="1" stop-color="rgb(24.676514%, 33.404541%, 40.19928%)" offset="0.4219"/>
      <stop stop-opacity="1" stop-color="rgb(24.771118%, 33.357239%, 39.868164%)" offset="0.4258"/>
      <stop stop-opacity="1" stop-color="rgb(24.867249%, 33.309937%, 39.537048%)" offset="0.4297"/>
      <stop stop-opacity="1" stop-color="rgb(24.963379%, 33.262634%, 39.205933%)" offset="0.4336"/>
      <stop stop-opacity="1" stop-color="rgb(25.059509%, 33.216858%, 38.876343%)" offset="0.4375"/>
      <stop stop-opacity="1" stop-color="rgb(25.15564%, 33.169556%, 38.545227%)" offset="0.4414"/>
      <stop stop-opacity="1" stop-color="rgb(25.25177%, 33.122253%, 38.215637%)" offset="0.4453"/>
      <stop stop-opacity="1" stop-color="rgb(25.346375%, 33.074951%, 37.884521%)" offset="0.4492"/>
      <stop stop-opacity="1" stop-color="rgb(25.442505%, 33.029175%, 37.553406%)" offset="0.4531"/>
      <stop stop-opacity="1" stop-color="rgb(25.538635%, 32.981873%, 37.22229%)" offset="0.457"/>
      <stop stop-opacity="1" stop-color="rgb(25.634766%, 32.93457%, 36.8927%)" offset="0.4609"/>
      <stop stop-opacity="1" stop-color="rgb(25.72937%, 32.887268%, 36.561584%)" offset="0.4648"/>
      <stop stop-opacity="1" stop-color="rgb(25.8255%, 32.841492%, 36.230469%)" offset="0.4688"/>
      <stop stop-opacity="1" stop-color="rgb(25.921631%, 32.794189%, 35.899353%)" offset="0.4727"/>
      <stop stop-opacity="1" stop-color="rgb(26.017761%, 32.748413%, 35.569763%)" offset="0.4766"/>
      <stop stop-opacity="1" stop-color="rgb(26.113892%, 32.701111%, 35.238647%)" offset="0.4805"/>
      <stop stop-opacity="1" stop-color="rgb(26.210022%, 32.653809%, 34.907532%)" offset="0.4844"/>
      <stop stop-opacity="1" stop-color="rgb(26.304626%, 32.606506%, 34.576416%)" offset="0.4883"/>
      <stop stop-opacity="1" stop-color="rgb(26.400757%, 32.56073%, 34.246826%)" offset="0.4922"/>
      <stop stop-opacity="1" stop-color="rgb(26.496887%, 32.513428%, 33.91571%)" offset="0.4961"/>
      <stop stop-opacity="1" stop-color="rgb(26.593018%, 32.466125%, 33.584595%)" offset="0.5"/>
      <stop stop-opacity="1" stop-color="rgb(26.687622%, 32.418823%, 33.253479%)" offset="0.5039"/>
      <stop stop-opacity="1" stop-color="rgb(26.783752%, 32.373047%, 32.923889%)" offset="0.5078"/>
      <stop stop-opacity="1" stop-color="rgb(26.879883%, 32.325745%, 32.592773%)" offset="0.5117"/>
      <stop stop-opacity="1" stop-color="rgb(26.976013%, 32.278442%, 32.263184%)" offset="0.5156"/>
      <stop stop-opacity="1" stop-color="rgb(27.072144%, 32.23114%, 31.932068%)" offset="0.5195"/>
      <stop stop-opacity="1" stop-color="rgb(27.168274%, 32.185364%, 31.600952%)" offset="0.5234"/>
      <stop stop-opacity="1" stop-color="rgb(27.262878%, 32.138062%, 31.269836%)" offset="0.5273"/>
      <stop stop-opacity="1" stop-color="rgb(27.359009%, 32.092285%, 30.940247%)" offset="0.5312"/>
      <stop stop-opacity="1" stop-color="rgb(27.455139%, 32.044983%, 30.609131%)" offset="0.5352"/>
      <stop stop-opacity="1" stop-color="rgb(27.55127%, 31.997681%, 30.278015%)" offset="0.5391"/>
      <stop stop-opacity="1" stop-color="rgb(27.645874%, 31.950378%, 29.946899%)" offset="0.543"/>
      <stop stop-opacity="1" stop-color="rgb(27.742004%, 31.904602%, 29.61731%)" offset="0.5469"/>
      <stop stop-opacity="1" stop-color="rgb(27.838135%, 31.8573%, 29.286194%)" offset="0.5508"/>
      <stop stop-opacity="1" stop-color="rgb(27.934265%, 31.809998%, 28.955078%)" offset="0.5547"/>
      <stop stop-opacity="1" stop-color="rgb(28.030396%, 31.762695%, 28.623962%)" offset="0.5586"/>
      <stop stop-opacity="1" stop-color="rgb(28.126526%, 31.716919%, 28.294373%)" offset="0.5625"/>
      <stop stop-opacity="1" stop-color="rgb(28.22113%, 31.669617%, 27.963257%)" offset="0.5664"/>
      <stop stop-opacity="1" stop-color="rgb(28.317261%, 31.622314%, 27.632141%)" offset="0.5703"/>
      <stop stop-opacity="1" stop-color="rgb(28.413391%, 31.575012%, 27.301025%)" offset="0.5742"/>
      <stop stop-opacity="1" stop-color="rgb(28.509521%, 31.529236%, 26.971436%)" offset="0.5781"/>
      <stop stop-opacity="1" stop-color="rgb(28.604126%, 31.481934%, 26.64032%)" offset="0.582"/>
      <stop stop-opacity="1" stop-color="rgb(28.700256%, 31.436157%, 26.31073%)" offset="0.5859"/>
      <stop stop-opacity="1" stop-color="rgb(28.796387%, 31.388855%, 25.979614%)" offset="0.5898"/>
      <stop stop-opacity="1" stop-color="rgb(28.892517%, 31.341553%, 25.648499%)" offset="0.5938"/>
      <stop stop-opacity="1" stop-color="rgb(28.988647%, 31.29425%, 25.317383%)" offset="0.5977"/>
      <stop stop-opacity="1" stop-color="rgb(29.084778%, 31.248474%, 24.987793%)" offset="0.6016"/>
      <stop stop-opacity="1" stop-color="rgb(29.179382%, 31.201172%, 24.656677%)" offset="0.6055"/>
      <stop stop-opacity="1" stop-color="rgb(29.275513%, 31.15387%, 24.325562%)" offset="0.6094"/>
      <stop stop-opacity="1" stop-color="rgb(29.371643%, 31.106567%, 23.994446%)" offset="0.6133"/>
      <stop stop-opacity="1" stop-color="rgb(29.467773%, 31.060791%, 23.664856%)" offset="0.6172"/>
      <stop stop-opacity="1" stop-color="rgb(29.562378%, 31.013489%, 23.33374%)" offset="0.6211"/>
      <stop stop-opacity="1" stop-color="rgb(29.658508%, 30.966187%, 23.002625%)" offset="0.625"/>
      <stop stop-opacity="1" stop-color="rgb(29.754639%, 30.918884%, 22.671509%)" offset="0.6289"/>
      <stop stop-opacity="1" stop-color="rgb(29.850769%, 30.873108%, 22.341919%)" offset="0.6328"/>
      <stop stop-opacity="1" stop-color="rgb(29.946899%, 30.825806%, 22.010803%)" offset="0.6367"/>
      <stop stop-opacity="1" stop-color="rgb(30.04303%, 30.778503%, 21.679688%)" offset="0.6406"/>
      <stop stop-opacity="1" stop-color="rgb(30.137634%, 30.731201%, 21.348572%)" offset="0.6445"/>
      <stop stop-opacity="1" stop-color="rgb(30.233765%, 30.685425%, 21.018982%)" offset="0.6484"/>
      <stop stop-opacity="1" stop-color="rgb(30.329895%, 30.638123%, 20.687866%)" offset="0.6523"/>
      <stop stop-opacity="1" stop-color="rgb(30.426025%, 30.592346%, 20.358276%)" offset="0.6563"/>
      <stop stop-opacity="1" stop-color="rgb(30.52063%, 30.545044%, 20.027161%)" offset="0.6602"/>
      <stop stop-opacity="1" stop-color="rgb(30.61676%, 30.497742%, 19.696045%)" offset="0.6641"/>
      <stop stop-opacity="1" stop-color="rgb(30.712891%, 30.450439%, 19.364929%)" offset="0.668"/>
      <stop stop-opacity="1" stop-color="rgb(30.809021%, 30.404663%, 19.035339%)" offset="0.6719"/>
      <stop stop-opacity="1" stop-color="rgb(30.905151%, 30.357361%, 18.704224%)" offset="0.6758"/>
      <stop stop-opacity="1" stop-color="rgb(31.001282%, 30.310059%, 18.373108%)" offset="0.6797"/>
      <stop stop-opacity="1" stop-color="rgb(31.095886%, 30.262756%, 18.041992%)" offset="0.6836"/>
      <stop stop-opacity="1" stop-color="rgb(31.192017%, 30.21698%, 17.712402%)" offset="0.6875"/>
      <stop stop-opacity="1" stop-color="rgb(31.288147%, 30.169678%, 17.381287%)" offset="0.6914"/>
      <stop stop-opacity="1" stop-color="rgb(31.384277%, 30.122375%, 17.050171%)" offset="0.6953"/>
      <stop stop-opacity="1" stop-color="rgb(31.478882%, 30.075073%, 16.719055%)" offset="0.6992"/>
      <stop stop-opacity="1" stop-color="rgb(31.575012%, 30.029297%, 16.389465%)" offset="0.7031"/>
      <stop stop-opacity="1" stop-color="rgb(31.671143%, 29.981995%, 16.05835%)" offset="0.707"/>
      <stop stop-opacity="1" stop-color="rgb(31.767273%, 29.936218%, 15.727234%)" offset="0.7109"/>
      <stop stop-opacity="1" stop-color="rgb(31.863403%, 29.888916%, 15.396118%)" offset="0.7148"/>
      <stop stop-opacity="1" stop-color="rgb(31.959534%, 29.841614%, 15.066528%)" offset="0.7188"/>
      <stop stop-opacity="1" stop-color="rgb(32.054138%, 29.794312%, 14.735413%)" offset="0.7227"/>
      <stop stop-opacity="1" stop-color="rgb(32.150269%, 29.748535%, 14.405823%)" offset="0.7266"/>
      <stop stop-opacity="1" stop-color="rgb(32.246399%, 29.701233%, 14.074707%)" offset="0.7305"/>
      <stop stop-opacity="1" stop-color="rgb(32.342529%, 29.653931%, 13.743591%)" offset="0.7344"/>
      <stop stop-opacity="1" stop-color="rgb(32.437134%, 29.606628%, 13.412476%)" offset="0.7383"/>
      <stop stop-opacity="1" stop-color="rgb(32.533264%, 29.560852%, 13.082886%)" offset="0.7422"/>
      <stop stop-opacity="1" stop-color="rgb(32.629395%, 29.51355%, 12.75177%)" offset="0.7461"/>
      <stop stop-opacity="1" stop-color="rgb(32.725525%, 29.466248%, 12.420654%)" offset="0.75"/>
      <stop stop-opacity="1" stop-color="rgb(32.820129%, 29.418945%, 12.089539%)" offset="0.7539"/>
      <stop stop-opacity="1" stop-color="rgb(32.91626%, 29.373169%, 11.759949%)" offset="0.7578"/>
      <stop stop-opacity="1" stop-color="rgb(33.01239%, 29.325867%, 11.428833%)" offset="0.7617"/>
      <stop stop-opacity="1" stop-color="rgb(33.108521%, 29.28009%, 11.097717%)" offset="0.7656"/>
      <stop stop-opacity="1" stop-color="rgb(33.204651%, 29.232788%, 10.766602%)" offset="0.7695"/>
      <stop stop-opacity="1" stop-color="rgb(33.300781%, 29.185486%, 10.437012%)" offset="0.7734"/>
      <stop stop-opacity="1" stop-color="rgb(33.395386%, 29.138184%, 10.105896%)" offset="0.7773"/>
      <stop stop-opacity="1" stop-color="rgb(33.491516%, 29.092407%, 9.77478%)" offset="0.7812"/>
      <stop stop-opacity="1" stop-color="rgb(33.587646%, 29.045105%, 9.443665%)" offset="0.7852"/>
      <stop stop-opacity="1" stop-color="rgb(33.683777%, 28.997803%, 9.114075%)" offset="0.7891"/>
      <stop stop-opacity="1" stop-color="rgb(33.778381%, 28.9505%, 8.782959%)" offset="0.793"/>
      <stop stop-opacity="1" stop-color="rgb(33.874512%, 28.904724%, 8.453369%)" offset="0.7969"/>
      <stop stop-opacity="1" stop-color="rgb(33.970642%, 28.857422%, 8.122253%)" offset="0.8008"/>
      <stop stop-opacity="1" stop-color="rgb(34.066772%, 28.81012%, 7.791138%)" offset="0.8047"/>
      <stop stop-opacity="1" stop-color="rgb(34.162903%, 28.762817%, 7.460022%)" offset="0.8086"/>
      <stop stop-opacity="1" stop-color="rgb(34.259033%, 28.717041%, 7.130432%)" offset="0.8125"/>
      <stop stop-opacity="1" stop-color="rgb(34.353638%, 28.669739%, 6.799316%)" offset="0.8164"/>
      <stop stop-opacity="1" stop-color="rgb(34.449768%, 28.623962%, 6.468201%)" offset="0.8203"/>
      <stop stop-opacity="1" stop-color="rgb(34.474182%, 28.611755%, 6.382751%)" offset="0.8281"/>
      <stop stop-opacity="1" stop-color="rgb(34.498596%, 28.599548%, 6.298828%)" offset="0.8438"/>
      <stop stop-opacity="1" stop-color="rgb(34.498596%, 28.599548%, 6.298828%)" offset="0.875"/>
      <stop stop-opacity="1" stop-color="rgb(34.498596%, 28.599548%, 6.298828%)" offset="1"/>
    </linearGradient>
    <clipPath id="ca1ab26dbc">
      <path d="M 102 160 L 487 160 L 487 442 L 102 442 Z M 102 160 " clip-rule="nonzero"/>
    </clipPath>
    <clipPath id="4a823cb4c0">
      <path d="M 206.917969 -1.382812 L 556.203125 408.476562 L 257.65625 662.898438 L -91.625 253.039062 Z M 206.917969 -1.382812 " clip-rule="nonzero"/>
    </clipPath>
    <clipPath id="a79947a032">
      <path d="M 206.917969 -1.382812 L 556.203125 408.476562 L 257.65625 662.898438 L -91.625 253.039062 Z M 206.917969 -1.382812 " clip-rule="nonzero"/>
    </clipPath>
    <clipPath id="ae080e95dd">
      <path d="M 0 304 L 10 304 L 10 337 L 0 337 Z M 0 304 " clip-rule="nonzero"/>
    </clipPath>
    <clipPath id="2aa59b9e63">
      <path d="M 206.917969 -1.382812 L 556.203125 408.476562 L 257.65625 662.898438 L -91.625 253.039062 Z M 206.917969 -1.382812 " clip-rule="nonzero"/>
    </clipPath>
    <clipPath id="60d264d59b">
      <path d="M 206.917969 -1.382812 L 556.203125 408.476562 L 257.65625 662.898438 L -91.625 253.039062 Z M 206.917969 -1.382812 " clip-rule="nonzero"/>
    </clipPath>
    <clipPath id="3bbe810611">
      <path d="M 144 120 L 167 120 L 167 142 L 144 142 Z M 144 120 " clip-rule="nonzero"/>
    </clipPath>
    <clipPath id="0b7a6ece61">
      <path d="M 206.917969 -1.382812 L 556.203125 408.476562 L 257.65625 662.898438 L -91.625 253.039062 Z M 206.917969 -1.382812 " clip-rule="nonzero"/>
    </clipPath>
    <clipPath id="29e4002c83">
      <path d="M 206.917969 -1.382812 L 556.203125 408.476562 L 257.65625 662.898438 L -91.625 253.039062 Z M 206.917969 -1.382812 " clip-rule="nonzero"/>
    </clipPath>
    <clipPath id="cdbdb1ce16">
      <path d="M 413 345.316406 L 640 345.316406 L 640 388.066406 L 413 388.066406 Z M 413 345.316406 " clip-rule="nonzero"/>
    </clipPath>
    <clipPath id="7506b9a388">
      <path d="M 800 345.164062 L 1027 345.164062 L 1027 387.914062 L 800 387.914062 Z M 800 345.164062 " clip-rule="nonzero"/>
    </clipPath>
  </defs>
  <g mask="url(#86d815dd91)" transform="matrix(1, 0, 0, 1, -107.911813, -234.073688)">
    <g transform="matrix(1, 0, 0, 1, 0, 368)">
      <g clip-path="url(#052bd50bbb)">
        <g clip-path="url(#d3b57ccc88)">
          <g clip-path="url(#a4828736ab)">
            <g clip-path="url(#732db42ff7)">
              <g clip-path="url(#7c4166c9f1)">
                <path fill="url(#ff3754129e)" d="M 261.011719 -85.152344 L -150.429688 265.480469 L 189.558594 664.433594 L 601 313.800781 Z M 261.011719 -85.152344 " fill-rule="nonzero"/>
              </g>
            </g>
          </g>
        </g>
        <g clip-path="url(#ca1ab26dbc)">
          <g clip-path="url(#4a823cb4c0)">
            <g clip-path="url(#a79947a032)">
              <path fill="#ffffff" d="M 193.21875 512.890625 C 192.214844 511.710938 191.207031 510.527344 190.347656 509.222656 C 171.398438 484.59375 166.785156 452.589844 177.769531 423.347656 C 182.828125 409.863281 177.519531 395.269531 165.003906 388.351562 C 149.191406 379.65625 135.570312 367.558594 124.925781 352.675781 C 86.527344 299.253906 98.296875 223.726562 151.339844 184.382812 C 177.0625 165.265625 208.648438 157.210938 240.472656 161.691406 C 272.300781 166.171875 300.566406 182.605469 320 208.097656 C 327.859375 218.21875 333.847656 229.425781 338.128906 241.324219 C 344.980469 260.71875 364.382812 272.726562 385.3125 270.695312 C 417.175781 267.75 447.617188 281.058594 467.070312 306.277344 C 493 339.992188 492.445312 386.847656 465.890625 419.929688 C 464.375 421.730469 463.882812 424.445312 464.804688 426.71875 C 474.703125 454.472656 465.695312 484.832031 442.539062 502.78125 C 415.003906 523.953125 376.339844 520.710938 352.617188 495.5625 C 351.613281 494.382812 350.140625 493.851562 348.625 493.867188 C 347.113281 493.882812 345.554688 494.445312 344.5 495.597656 L 323.148438 516.855469 C 300.886719 539.136719 268.523438 548.367188 238.996094 540.910156 C 221.027344 536.855469 205.300781 527.0625 193.21875 512.890625 Z M 174.347656 393.640625 C 181.269531 401.761719 183.511719 413.355469 179.492188 424.175781 C 168.574219 452.59375 173.226562 484.054688 191.675781 508.089844 C 203.773438 523.777344 220.230469 534.726562 239.523438 539.4375 C 268.378906 546.707031 300.050781 537.558594 321.847656 515.925781 L 343.199219 494.667969 C 344.695312 493.136719 346.675781 492.472656 348.734375 492.5 C 350.796875 492.527344 352.792969 493.375 354.050781 494.851562 C 377.144531 519.261719 414.714844 522.414062 441.363281 501.996094 C 464.054688 484.699219 472.746094 454.863281 463.179688 428.101562 C 462.054688 424.984375 462.585938 421.726562 464.570312 419.273438 C 490.660156 386.84375 491.125 341.078125 465.699219 307.953125 C 446.621094 283.179688 416.707031 270.1875 385.535156 273.050781 C 363.640625 275.144531 343.460938 262.519531 336.402344 242.285156 C 332.246094 230.535156 326.238281 219.601562 318.648438 209.5 C 299.320312 184.429688 271.582031 168.3125 240.300781 163.875 C 208.894531 159.292969 177.730469 167.246094 152.453125 185.984375 C 100.417969 224.722656 88.757812 298.882812 126.527344 351.566406 C 137.046875 366.300781 150.289062 377.957031 165.828125 386.628906 C 169.25 388.554688 172.085938 390.984375 174.347656 393.640625 Z M 174.347656 393.640625 " fill-opacity="1" fill-rule="nonzero"/>
            </g>
          </g>
        </g>
        <g clip-path="url(#ae080e95dd)">
          <g clip-path="url(#2aa59b9e63)">
            <g clip-path="url(#60d264d59b)">
              <path fill="#ffffff" d="M 6.683594 333.144531 L -4.007812 320.59375 L 8.527344 309.910156 C 9.414062 309.15625 9.523438 307.789062 8.765625 306.902344 C 8.011719 306.019531 6.644531 305.910156 5.761719 306.664062 L -6.777344 317.347656 L -17.472656 304.796875 C -18.226562 303.914062 -19.59375 303.804688 -20.476562 304.558594 C -21.363281 305.3125 -21.472656 306.679688 -20.71875 307.5625 L -10.023438 320.113281 L -22.558594 330.796875 C -23.445312 331.550781 -23.554688 332.917969 -22.796875 333.804688 C -22.042969 334.691406 -20.675781 334.800781 -19.792969 334.046875 L -7.253906 323.359375 L 3.441406 335.910156 C 4.195312 336.796875 5.5625 336.90625 6.445312 336.152344 C 7.332031 335.398438 7.441406 334.03125 6.683594 333.144531 Z M 6.683594 333.144531 " fill-opacity="1" fill-rule="nonzero"/>
            </g>
          </g>
        </g>
        <g clip-path="url(#3bbe810611)">
          <g clip-path="url(#0b7a6ece61)">
            <g clip-path="url(#29e4002c83)">
              <path fill="#ffffff" d="M 164.949219 139.398438 L 157.777344 130.984375 L 166.1875 123.816406 C 166.777344 123.316406 166.839844 122.496094 166.339844 121.90625 C 165.835938 121.3125 165.015625 121.25 164.425781 121.75 L 156.015625 128.917969 L 148.84375 120.5 C 148.34375 119.910156 147.523438 119.84375 146.933594 120.347656 C 146.34375 120.851562 146.277344 121.671875 146.78125 122.261719 L 153.953125 130.675781 L 145.398438 137.964844 C 144.808594 138.46875 144.742188 139.289062 145.246094 139.878906 C 145.75 140.46875 146.570312 140.535156 147.160156 140.035156 L 155.566406 132.867188 L 162.738281 141.285156 C 163.242188 141.875 164.0625 141.941406 164.652344 141.4375 C 165.515625 140.957031 165.453125 139.988281 164.949219 139.398438 Z M 164.949219 139.398438 " fill-opacity="1" fill-rule="nonzero"/>
            </g>
          </g>
        </g>
      </g>
    </g>
  </g>
  <g fill="#ffffff" fill-opacity="1" transform="matrix(1, 0, 0, 1, -107.911813, -234.073688)">
    <g transform="translate(578.282108, 374.557199)">
      <g>
        <path d="M 8.3125 -4.109375 L 5.921875 -4.109375 L 5.921875 0 L 1.546875 0 L 1.546875 -15.484375 L 8.625 -15.484375 C 10.03125 -15.484375 11.25 -15.25 12.28125 -14.78125 C 13.3125 -14.320312 14.109375 -13.660156 14.671875 -12.796875 C 15.234375 -11.929688 15.515625 -10.914062 15.515625 -9.75 C 15.515625 -8.632812 15.25 -7.660156 14.71875 -6.828125 C 14.195312 -5.992188 13.453125 -5.34375 12.484375 -4.875 L 15.8125 0 L 11.125 0 Z M 11.078125 -9.75 C 11.078125 -10.476562 10.847656 -11.039062 10.390625 -11.4375 C 9.941406 -11.832031 9.265625 -12.03125 8.359375 -12.03125 L 5.921875 -12.03125 L 5.921875 -7.5 L 8.359375 -7.5 C 9.265625 -7.5 9.941406 -7.691406 10.390625 -8.078125 C 10.847656 -8.472656 11.078125 -9.03125 11.078125 -9.75 Z M 11.078125 -9.75 "/>
      </g>
    </g>
  </g>
  <g fill="#ffffff" fill-opacity="1" transform="matrix(1, 0, 0, 1, -107.911813, -234.073688)">
    <g transform="translate(594.651891, 374.557199)">
      <g>
        <path d="M 9.359375 0.3125 C 7.722656 0.3125 6.25 -0.03125 4.9375 -0.71875 C 3.632812 -1.414062 2.609375 -2.375 1.859375 -3.59375 C 1.117188 -4.820312 0.75 -6.207031 0.75 -7.75 C 0.75 -9.28125 1.117188 -10.65625 1.859375 -11.875 C 2.609375 -13.101562 3.632812 -14.0625 4.9375 -14.75 C 6.25 -15.445312 7.722656 -15.796875 9.359375 -15.796875 C 10.992188 -15.796875 12.460938 -15.445312 13.765625 -14.75 C 15.078125 -14.0625 16.101562 -13.101562 16.84375 -11.875 C 17.59375 -10.65625 17.96875 -9.28125 17.96875 -7.75 C 17.96875 -6.207031 17.59375 -4.820312 16.84375 -3.59375 C 16.101562 -2.375 15.078125 -1.414062 13.765625 -0.71875 C 12.460938 -0.03125 10.992188 0.3125 9.359375 0.3125 Z M 9.359375 -3.3125 C 10.140625 -3.3125 10.847656 -3.492188 11.484375 -3.859375 C 12.117188 -4.234375 12.617188 -4.753906 12.984375 -5.421875 C 13.359375 -6.097656 13.546875 -6.875 13.546875 -7.75 C 13.546875 -8.613281 13.359375 -9.378906 12.984375 -10.046875 C 12.617188 -10.722656 12.117188 -11.242188 11.484375 -11.609375 C 10.847656 -11.984375 10.140625 -12.171875 9.359375 -12.171875 C 8.578125 -12.171875 7.867188 -11.984375 7.234375 -11.609375 C 6.597656 -11.242188 6.09375 -10.722656 5.71875 -10.046875 C 5.351562 -9.378906 5.171875 -8.613281 5.171875 -7.75 C 5.171875 -6.875 5.351562 -6.097656 5.71875 -5.421875 C 6.09375 -4.753906 6.597656 -4.234375 7.234375 -3.859375 C 7.867188 -3.492188 8.578125 -3.3125 9.359375 -3.3125 Z M 9.359375 -3.3125 "/>
      </g>
    </g>
  </g>
  <g fill="#ffffff" fill-opacity="1" transform="matrix(1, 0, 0, 1, -107.911813, -234.073688)">
    <g transform="translate(613.366535, 374.557199)">
      <g>
        <path d="M 13.453125 -8.078125 C 14.335938 -7.765625 15.03125 -7.28125 15.53125 -6.625 C 16.03125 -5.96875 16.28125 -5.175781 16.28125 -4.25 C 16.28125 -2.894531 15.734375 -1.847656 14.640625 -1.109375 C 13.554688 -0.367188 11.976562 0 9.90625 0 L 1.546875 0 L 1.546875 -15.484375 L 9.46875 -15.484375 C 11.445312 -15.484375 12.953125 -15.117188 13.984375 -14.390625 C 15.015625 -13.660156 15.53125 -12.675781 15.53125 -11.4375 C 15.53125 -10.695312 15.347656 -10.035156 14.984375 -9.453125 C 14.628906 -8.867188 14.117188 -8.410156 13.453125 -8.078125 Z M 5.890625 -12.328125 L 5.890625 -9.34375 L 8.890625 -9.34375 C 10.367188 -9.34375 11.109375 -9.84375 11.109375 -10.84375 C 11.109375 -11.832031 10.367188 -12.328125 8.890625 -12.328125 Z M 9.5625 -3.15625 C 11.09375 -3.15625 11.859375 -3.679688 11.859375 -4.734375 C 11.859375 -5.785156 11.09375 -6.3125 9.5625 -6.3125 L 5.890625 -6.3125 L 5.890625 -3.15625 Z M 9.5625 -3.15625 "/>
      </g>
    </g>
  </g>
  <g fill="#ffffff" fill-opacity="1" transform="matrix(1, 0, 0, 1, -107.911813, -234.073688)">
    <g transform="translate(630.37784, 374.557199)">
      <g>
        <path d="M 9.359375 0.3125 C 7.722656 0.3125 6.25 -0.03125 4.9375 -0.71875 C 3.632812 -1.414062 2.609375 -2.375 1.859375 -3.59375 C 1.117188 -4.820312 0.75 -6.207031 0.75 -7.75 C 0.75 -9.28125 1.117188 -10.65625 1.859375 -11.875 C 2.609375 -13.101562 3.632812 -14.0625 4.9375 -14.75 C 6.25 -15.445312 7.722656 -15.796875 9.359375 -15.796875 C 10.992188 -15.796875 12.460938 -15.445312 13.765625 -14.75 C 15.078125 -14.0625 16.101562 -13.101562 16.84375 -11.875 C 17.59375 -10.65625 17.96875 -9.28125 17.96875 -7.75 C 17.96875 -6.207031 17.59375 -4.820312 16.84375 -3.59375 C 16.101562 -2.375 15.078125 -1.414062 13.765625 -0.71875 C 12.460938 -0.03125 10.992188 0.3125 9.359375 0.3125 Z M 9.359375 -3.3125 C 10.140625 -3.3125 10.847656 -3.492188 11.484375 -3.859375 C 12.117188 -4.234375 12.617188 -4.753906 12.984375 -5.421875 C 13.359375 -6.097656 13.546875 -6.875 13.546875 -7.75 C 13.546875 -8.613281 13.359375 -9.378906 12.984375 -10.046875 C 12.617188 -10.722656 12.117188 -11.242188 11.484375 -11.609375 C 10.847656 -11.984375 10.140625 -12.171875 9.359375 -12.171875 C 8.578125 -12.171875 7.867188 -11.984375 7.234375 -11.609375 C 6.597656 -11.242188 6.09375 -10.722656 5.71875 -10.046875 C 5.351562 -9.378906 5.171875 -8.613281 5.171875 -7.75 C 5.171875 -6.875 5.351562 -6.097656 5.71875 -5.421875 C 6.09375 -4.753906 6.597656 -4.234375 7.234375 -3.859375 C 7.867188 -3.492188 8.578125 -3.3125 9.359375 -3.3125 Z M 9.359375 -3.3125 "/>
      </g>
    </g>
  </g>
  <g fill="#ffffff" fill-opacity="1" transform="matrix(1, 0, 0, 1, -107.911813, -234.073688)">
    <g transform="translate(649.092484, 374.557199)">
      <g>
        <path d="M 4.84375 -12.015625 L 0.09375 -12.015625 L 0.09375 -15.484375 L 13.953125 -15.484375 L 13.953125 -12.015625 L 9.21875 -12.015625 L 9.21875 0 L 4.84375 0 Z M 4.84375 -12.015625 "/>
      </g>
    </g>
  </g>
  <g fill="#ffffff" fill-opacity="1" transform="matrix(1, 0, 0, 1, -107.911813, -234.073688)">
    <g transform="translate(663.139537, 374.557199)">
      <g>
        <path d="M 1.546875 -15.484375 L 5.921875 -15.484375 L 5.921875 0 L 1.546875 0 Z M 1.546875 -15.484375 "/>
      </g>
    </g>
  </g>
  <g fill="#ffffff" fill-opacity="1" transform="matrix(1, 0, 0, 1, -107.911813, -234.073688)">
    <g transform="translate(670.638671, 374.557199)">
      <g>
        <path d="M 9.265625 0.3125 C 7.648438 0.3125 6.195312 -0.03125 4.90625 -0.71875 C 3.613281 -1.40625 2.597656 -2.359375 1.859375 -3.578125 C 1.117188 -4.804688 0.75 -6.195312 0.75 -7.75 C 0.75 -9.289062 1.117188 -10.671875 1.859375 -11.890625 C 2.597656 -13.117188 3.613281 -14.078125 4.90625 -14.765625 C 6.195312 -15.453125 7.648438 -15.796875 9.265625 -15.796875 C 10.679688 -15.796875 11.957031 -15.546875 13.09375 -15.046875 C 14.226562 -14.546875 15.175781 -13.820312 15.9375 -12.875 L 13.140625 -10.359375 C 12.140625 -11.566406 10.921875 -12.171875 9.484375 -12.171875 C 8.648438 -12.171875 7.90625 -11.984375 7.25 -11.609375 C 6.59375 -11.242188 6.082031 -10.722656 5.71875 -10.046875 C 5.351562 -9.378906 5.171875 -8.613281 5.171875 -7.75 C 5.171875 -6.875 5.351562 -6.097656 5.71875 -5.421875 C 6.082031 -4.753906 6.59375 -4.234375 7.25 -3.859375 C 7.90625 -3.492188 8.648438 -3.3125 9.484375 -3.3125 C 10.921875 -3.3125 12.140625 -3.921875 13.140625 -5.140625 L 15.9375 -2.609375 C 15.175781 -1.660156 14.226562 -0.9375 13.09375 -0.4375 C 11.957031 0.0625 10.679688 0.3125 9.265625 0.3125 Z M 9.265625 0.3125 "/>
      </g>
    </g>
  </g>
  <g fill="#ffffff" fill-opacity="1" transform="matrix(1, 0, 0, 1, -107.911813, -234.073688)">
    <g transform="translate(686.964213, 374.557199)">
      <g>
        <path d="M 6.984375 0.3125 C 5.734375 0.3125 4.519531 0.15625 3.34375 -0.15625 C 2.164062 -0.46875 1.207031 -0.878906 0.46875 -1.390625 L 1.90625 -4.625 C 2.59375 -4.164062 3.394531 -3.796875 4.3125 -3.515625 C 5.226562 -3.234375 6.128906 -3.09375 7.015625 -3.09375 C 8.691406 -3.09375 9.53125 -3.515625 9.53125 -4.359375 C 9.53125 -4.796875 9.289062 -5.117188 8.8125 -5.328125 C 8.332031 -5.546875 7.5625 -5.773438 6.5 -6.015625 C 5.332031 -6.265625 4.359375 -6.53125 3.578125 -6.8125 C 2.796875 -7.101562 2.125 -7.566406 1.5625 -8.203125 C 1.007812 -8.835938 0.734375 -9.695312 0.734375 -10.78125 C 0.734375 -11.71875 0.988281 -12.566406 1.5 -13.328125 C 2.019531 -14.085938 2.789062 -14.6875 3.8125 -15.125 C 4.84375 -15.570312 6.101562 -15.796875 7.59375 -15.796875 C 8.601562 -15.796875 9.601562 -15.679688 10.59375 -15.453125 C 11.582031 -15.222656 12.453125 -14.890625 13.203125 -14.453125 L 11.859375 -11.1875 C 10.378906 -11.988281 8.945312 -12.390625 7.5625 -12.390625 C 6.695312 -12.390625 6.0625 -12.257812 5.65625 -12 C 5.257812 -11.738281 5.0625 -11.40625 5.0625 -11 C 5.0625 -10.582031 5.296875 -10.269531 5.765625 -10.0625 C 6.242188 -9.851562 7.003906 -9.640625 8.046875 -9.421875 C 9.234375 -9.171875 10.210938 -8.898438 10.984375 -8.609375 C 11.753906 -8.328125 12.421875 -7.875 12.984375 -7.25 C 13.554688 -6.625 13.84375 -5.769531 13.84375 -4.6875 C 13.84375 -3.757812 13.582031 -2.921875 13.0625 -2.171875 C 12.550781 -1.421875 11.78125 -0.816406 10.75 -0.359375 C 9.71875 0.0859375 8.460938 0.3125 6.984375 0.3125 Z M 6.984375 0.3125 "/>
      </g>
    </g>
  </g>
  <g fill="#ffffff" fill-opacity="1" transform="matrix(1, 0, 0, 1, -107.911813, -234.073688)">
    <g transform="translate(707.714025, 374.557199)">
      <g>
        <path d="M 16.28125 -15.484375 L 16.28125 0 L 11.90625 0 L 11.90625 -6.046875 L 5.921875 -6.046875 L 5.921875 0 L 1.546875 0 L 1.546875 -15.484375 L 5.921875 -15.484375 L 5.921875 -9.671875 L 11.90625 -9.671875 L 11.90625 -15.484375 Z M 16.28125 -15.484375 "/>
      </g>
    </g>
  </g>
  <g fill="#ffffff" fill-opacity="1" transform="matrix(1, 0, 0, 1, -107.911813, -234.073688)">
    <g transform="translate(725.543825, 374.557199)">
      <g>
        <path d="M 11.921875 -3.015625 L 5.375 -3.015625 L 4.15625 0 L -0.3125 0 L 6.53125 -15.484375 L 10.84375 -15.484375 L 17.703125 0 L 13.140625 0 Z M 10.640625 -6.234375 L 8.65625 -11.1875 L 6.65625 -6.234375 Z M 10.640625 -6.234375 "/>
      </g>
    </g>
  </g>
  <g fill="#ffffff" fill-opacity="1" transform="matrix(1, 0, 0, 1, -107.911813, -234.073688)">
    <g transform="translate(742.931196, 374.557199)">
      <g>
        <path d="M 9.265625 0.3125 C 7.648438 0.3125 6.195312 -0.03125 4.90625 -0.71875 C 3.613281 -1.40625 2.597656 -2.359375 1.859375 -3.578125 C 1.117188 -4.804688 0.75 -6.195312 0.75 -7.75 C 0.75 -9.289062 1.117188 -10.671875 1.859375 -11.890625 C 2.597656 -13.117188 3.613281 -14.078125 4.90625 -14.765625 C 6.195312 -15.453125 7.648438 -15.796875 9.265625 -15.796875 C 10.679688 -15.796875 11.957031 -15.546875 13.09375 -15.046875 C 14.226562 -14.546875 15.175781 -13.820312 15.9375 -12.875 L 13.140625 -10.359375 C 12.140625 -11.566406 10.921875 -12.171875 9.484375 -12.171875 C 8.648438 -12.171875 7.90625 -11.984375 7.25 -11.609375 C 6.59375 -11.242188 6.082031 -10.722656 5.71875 -10.046875 C 5.351562 -9.378906 5.171875 -8.613281 5.171875 -7.75 C 5.171875 -6.875 5.351562 -6.097656 5.71875 -5.421875 C 6.082031 -4.753906 6.59375 -4.234375 7.25 -3.859375 C 7.90625 -3.492188 8.648438 -3.3125 9.484375 -3.3125 C 10.921875 -3.3125 12.140625 -3.921875 13.140625 -5.140625 L 15.9375 -2.609375 C 15.175781 -1.660156 14.226562 -0.9375 13.09375 -0.4375 C 11.957031 0.0625 10.679688 0.3125 9.265625 0.3125 Z M 9.265625 0.3125 "/>
      </g>
    </g>
  </g>
  <g fill="#ffffff" fill-opacity="1" transform="matrix(1, 0, 0, 1, -107.911813, -234.073688)">
    <g transform="translate(759.256738, 374.557199)">
      <g>
        <path d="M 7.515625 -5.625 L 5.890625 -3.875 L 5.890625 0 L 1.546875 0 L 1.546875 -15.484375 L 5.890625 -15.484375 L 5.890625 -9.046875 L 11.875 -15.484375 L 16.703125 -15.484375 L 10.375 -8.625 L 17.03125 0 L 11.953125 0 Z M 7.515625 -5.625 "/>
      </g>
    </g>
  </g>
  <g fill="#ffffff" fill-opacity="1" transform="matrix(1, 0, 0, 1, -107.911813, -234.073688)">
    <g transform="translate(775.891997, 374.557199)">
      <g>
        <path d="M 11.921875 -3.015625 L 5.375 -3.015625 L 4.15625 0 L -0.3125 0 L 6.53125 -15.484375 L 10.84375 -15.484375 L 17.703125 0 L 13.140625 0 Z M 10.640625 -6.234375 L 8.65625 -11.1875 L 6.65625 -6.234375 Z M 10.640625 -6.234375 "/>
      </g>
    </g>
  </g>
  <g fill="#ffffff" fill-opacity="1" transform="matrix(1, 0, 0, 1, -107.911813, -234.073688)">
    <g transform="translate(793.279369, 374.557199)">
      <g>
        <path d="M 4.84375 -12.015625 L 0.09375 -12.015625 L 0.09375 -15.484375 L 13.953125 -15.484375 L 13.953125 -12.015625 L 9.21875 -12.015625 L 9.21875 0 L 4.84375 0 Z M 4.84375 -12.015625 "/>
      </g>
    </g>
  </g>
  <g fill="#ffffff" fill-opacity="1" transform="matrix(1, 0, 0, 1, -107.911813, -234.073688)">
    <g transform="translate(807.326432, 374.557199)">
      <g>
        <path d="M 16.28125 -15.484375 L 16.28125 0 L 11.90625 0 L 11.90625 -6.046875 L 5.921875 -6.046875 L 5.921875 0 L 1.546875 0 L 1.546875 -15.484375 L 5.921875 -15.484375 L 5.921875 -9.671875 L 11.90625 -9.671875 L 11.90625 -15.484375 Z M 16.28125 -15.484375 "/>
      </g>
    </g>
  </g>
  <g fill="#ffffff" fill-opacity="1" transform="matrix(1, 0, 0, 1, -107.911813, -234.073688)">
    <g transform="translate(825.156232, 374.557199)">
      <g>
        <path d="M 9.359375 0.3125 C 7.722656 0.3125 6.25 -0.03125 4.9375 -0.71875 C 3.632812 -1.414062 2.609375 -2.375 1.859375 -3.59375 C 1.117188 -4.820312 0.75 -6.207031 0.75 -7.75 C 0.75 -9.28125 1.117188 -10.65625 1.859375 -11.875 C 2.609375 -13.101562 3.632812 -14.0625 4.9375 -14.75 C 6.25 -15.445312 7.722656 -15.796875 9.359375 -15.796875 C 10.992188 -15.796875 12.460938 -15.445312 13.765625 -14.75 C 15.078125 -14.0625 16.101562 -13.101562 16.84375 -11.875 C 17.59375 -10.65625 17.96875 -9.28125 17.96875 -7.75 C 17.96875 -6.207031 17.59375 -4.820312 16.84375 -3.59375 C 16.101562 -2.375 15.078125 -1.414062 13.765625 -0.71875 C 12.460938 -0.03125 10.992188 0.3125 9.359375 0.3125 Z M 9.359375 -3.3125 C 10.140625 -3.3125 10.847656 -3.492188 11.484375 -3.859375 C 12.117188 -4.234375 12.617188 -4.753906 12.984375 -5.421875 C 13.359375 -6.097656 13.546875 -6.875 13.546875 -7.75 C 13.546875 -8.613281 13.359375 -9.378906 12.984375 -10.046875 C 12.617188 -10.722656 12.117188 -11.242188 11.484375 -11.609375 C 10.847656 -11.984375 10.140625 -12.171875 9.359375 -12.171875 C 8.578125 -12.171875 7.867188 -11.984375 7.234375 -11.609375 C 6.597656 -11.242188 6.09375 -10.722656 5.71875 -10.046875 C 5.351562 -9.378906 5.171875 -8.613281 5.171875 -7.75 C 5.171875 -6.875 5.351562 -6.097656 5.71875 -5.421875 C 6.09375 -4.753906 6.597656 -4.234375 7.234375 -3.859375 C 7.867188 -3.492188 8.578125 -3.3125 9.359375 -3.3125 Z M 9.359375 -3.3125 "/>
      </g>
    </g>
  </g>
  <g fill="#ffffff" fill-opacity="1" transform="matrix(1, 0, 0, 1, -107.911813, -234.073688)">
    <g transform="translate(843.870887, 374.557199)">
      <g>
        <path d="M 16.28125 -15.484375 L 16.28125 0 L 12.671875 0 L 5.84375 -8.25 L 5.84375 0 L 1.546875 0 L 1.546875 -15.484375 L 5.15625 -15.484375 L 11.984375 -7.234375 L 11.984375 -15.484375 Z M 16.28125 -15.484375 "/>
      </g>
    </g>
  </g>
  <g clip-path="url(#cdbdb1ce16)" transform="matrix(1, 0, 0, 1, -107.911813, -234.073688)">
    <path fill="#ffecb3" d="M 512.707031 367.222656 L 534.554688 388.066406 L 639.09375 388.066406 L 639.09375 387.109375 L 534.980469 387.109375 L 513.5625 366.691406 L 534.980469 346.273438 L 639.09375 346.273438 L 639.09375 345.316406 L 534.554688 345.316406 L 512.707031 366.160156 L 413.285156 366.160156 L 413.285156 367.222656 Z M 512.707031 367.222656 " fill-opacity="1" fill-rule="nonzero"/>
  </g>
  <g clip-path="url(#7506b9a388)" transform="matrix(1, 0, 0, 1, -107.911813, -234.073688)">
    <path fill="#ffecb3" d="M 927.289062 366.007812 L 905.445312 345.164062 L 800.90625 345.164062 L 800.90625 346.121094 L 905.019531 346.121094 L 926.4375 366.539062 L 905.019531 386.957031 L 800.90625 386.957031 L 800.90625 387.914062 L 905.445312 387.914062 L 927.289062 367.070312 L 1026.714844 367.070312 L 1026.714844 366.007812 Z M 927.289062 366.007812 " fill-opacity="1" fill-rule="nonzero"/>
  </g>
</svg>