<?xml version="1.0" encoding="utf-8"?>
<svg viewBox="328.281 -30.925 444.098 105.111" xmlns="http://www.w3.org/2000/svg">
  <defs>
    <clipPath id="41e316ae25">
      <path d="M 532.402344 233.144531 L 573.609375 233.144531 L 573.609375 284.765625 L 532.402344 284.765625 Z M 532.402344 233.144531 " clip-rule="nonzero"/>
    </clipPath>
    <clipPath id="cd1df0bbd1">
      <path d="M 674 255 L 683.652344 255 L 683.652344 276 L 674 276 Z M 674 255 " clip-rule="nonzero"/>
    </clipPath>
    <clipPath id="9bfe1522a3">
      <path d="M 636.558594 233.144531 L 678 233.144531 L 678 284.765625 L 636.558594 284.765625 Z M 636.558594 233.144531 " clip-rule="nonzero"/>
    </clipPath>
    <clipPath id="d58c9b6395">
      <path d="M 741.890625 233.144531 L 783.09375 233.144531 L 783.09375 284.765625 L 741.890625 284.765625 Z M 741.890625 233.144531 " clip-rule="nonzero"/>
    </clipPath>
    <clipPath id="9a70b9e74b">
      <path d="M 873 239 L 887 239 L 887 284.765625 L 873 284.765625 Z M 873 239 " clip-rule="nonzero"/>
    </clipPath>
    <clipPath id="621dc0cf31">
      <path d="M 864.113281 233.144531 L 907.582031 233.144531 L 907.582031 284 L 864.113281 284 Z M 864.113281 233.144531 " clip-rule="nonzero"/>
    </clipPath>
    <clipPath id="73d525ca7e">
      <path d="M 570.65625 233.144531 L 634.050781 233.144531 L 634.050781 284.765625 L 570.65625 284.765625 Z M 570.65625 233.144531 " clip-rule="nonzero"/>
    </clipPath>
    <clipPath id="8c0f554ae9">
      <path d="M 786.019531 234 L 827 234 L 827 284 L 786.019531 284 Z M 786.019531 234 " clip-rule="nonzero"/>
    </clipPath>
    <clipPath id="d043d8c240">
      <path d="M 786.019531 233.144531 L 827.226562 233.144531 L 827.226562 284.765625 L 786.019531 284.765625 Z M 786.019531 233.144531 " clip-rule="nonzero"/>
    </clipPath>
    <clipPath id="697ab4e0f7">
      <path d="M 686.320312 233.144531 L 749.714844 233.144531 L 749.714844 284.765625 L 686.320312 284.765625 Z M 686.320312 233.144531 " clip-rule="nonzero"/>
    </clipPath>
    <clipPath id="e17ebf7f6d">
      <path d="M 830 233.144531 L 864 233.144531 L 864 284.765625 L 830 284.765625 Z M 830 233.144531 " clip-rule="nonzero"/>
    </clipPath>
    <clipPath id="7506b9a388">
      <path d="M 800 345.164062 L 1027 345.164062 L 1027 387.914062 L 800 387.914062 Z M 800 345.164062 " clip-rule="nonzero"/>
    </clipPath>
  </defs>
  <path fill="#546e7a" d="M 562.175781 283.773438 C 561.886719 283.773438 561.609375 283.636719 561.433594 283.402344 L 547.570312 265.042969 L 542.679688 265.042969 L 542.679688 282.835938 C 542.679688 283.355469 542.261719 283.773438 541.746094 283.773438 L 534.273438 283.773438 C 533.757812 283.773438 533.335938 283.355469 533.335938 282.835938 L 533.335938 235.074219 C 533.335938 234.558594 533.757812 234.140625 534.273438 234.140625 L 555.433594 234.140625 C 563.859375 234.140625 570.714844 241.070312 570.714844 249.589844 C 570.714844 256.964844 565.429688 263.3125 558.40625 264.734375 L 572.378906 282.25 C 572.601562 282.53125 572.648438 282.917969 572.492188 283.242188 C 572.335938 283.566406 572.007812 283.773438 571.648438 283.773438 Z M 553.335938 259.425781 C 557.765625 259.425781 561.371094 255.011719 561.371094 249.589844 C 561.371094 244.167969 557.765625 239.757812 553.335938 239.757812 L 542.679688 239.757812 L 542.679688 259.425781 Z M 553.335938 259.425781 " fill-opacity="1" fill-rule="nonzero" transform="matrix(1, 0, 0, 1, -169.421908, -234.073673)"/>
  <path fill="#ffecb3" d="M 545.484375 247.25 C 545.484375 247.765625 545.902344 248.1875 546.417969 248.1875 L 548.289062 248.1875 C 548.804688 248.1875 549.222656 247.765625 549.222656 247.25 C 549.222656 246.734375 548.804688 246.3125 548.289062 246.3125 L 546.417969 246.3125 C 545.902344 246.3125 545.484375 246.734375 545.484375 247.25 Z M 545.484375 242.566406 C 545.484375 243.085938 545.902344 243.503906 546.417969 243.503906 L 548.289062 243.503906 C 548.804688 243.503906 549.222656 243.085938 549.222656 242.566406 C 549.222656 242.050781 548.804688 241.628906 548.289062 241.628906 L 546.417969 241.628906 C 545.902344 241.628906 545.484375 242.050781 545.484375 242.566406 Z M 545.484375 251.933594 C 545.484375 252.449219 545.902344 252.867188 546.417969 252.867188 L 548.289062 252.867188 C 548.804688 252.867188 549.222656 252.449219 549.222656 251.933594 C 549.222656 251.414062 548.804688 250.996094 548.289062 250.996094 L 546.417969 250.996094 C 545.902344 250.996094 545.484375 251.414062 545.484375 251.933594 Z M 545.484375 256.613281 C 545.484375 257.132812 545.902344 257.550781 546.417969 257.550781 L 548.289062 257.550781 C 548.804688 257.550781 549.222656 257.132812 549.222656 256.613281 C 549.222656 256.097656 548.804688 255.679688 548.289062 255.679688 L 546.417969 255.679688 C 545.902344 255.679688 545.484375 256.097656 545.484375 256.613281 Z M 545.484375 256.613281 " fill-opacity="1" fill-rule="nonzero" transform="matrix(1, 0, 0, 1, -169.421908, -234.073673)"/>
  <path fill="#90a4ae" d="M 548.085938 264.632812 L 561.484375 283.496094 C 563.683594 281.90625 564.195312 278.835938 562.625 276.613281 L 554.945312 265.824219 C 553.371094 263.601562 550.308594 263.078125 548.085938 264.632812 Z M 533.414062 234.921875 L 533.414062 282.753906 C 536.128906 282.734375 538.320312 280.527344 538.320312 277.804688 L 538.320312 239.875 C 538.320312 237.152344 536.128906 234.945312 533.414062 234.921875 Z M 564.785156 255.957031 C 565.792969 254.035156 566.207031 251.789062 566.207031 249.515625 C 566.207031 246.355469 565.214844 243.433594 563.519531 240.984375 C 561.796875 238.496094 555.996094 236.398438 555.226562 240.769531 C 558.863281 241.585938 561.601562 245.191406 561.601562 249.515625 C 561.601562 249.625 561.589844 249.730469 561.589844 249.84375 C 561.59375 249.910156 561.601562 249.980469 561.601562 250.039062 C 561.601562 250.5625 561.484375 251.25 561.292969 251.960938 C 561.179688 252.410156 561.035156 252.839844 560.863281 253.257812 C 560.539062 254.078125 560.148438 254.828125 559.734375 255.285156 C 559.695312 255.328125 559.648438 255.367188 559.609375 255.410156 C 558.804688 256.429688 557.804688 257.242188 556.664062 257.765625 C 557.515625 260.53125 563.238281 258.914062 564.785156 255.957031 Z M 564.785156 255.957031 " fill-opacity="1" fill-rule="nonzero" transform="matrix(1, 0, 0, 1, -169.421908, -234.073673)"/>
  <path fill="#ffecb3" d="M 564.277344 257.59375 C 564.097656 257.59375 563.910156 257.539062 563.75 257.425781 C 563.324219 257.132812 563.21875 256.550781 563.507812 256.125 C 564.449219 254.75 565.449219 252.09375 565.421875 248.753906 C 565.417969 248.238281 565.832031 247.8125 566.351562 247.808594 C 566.863281 247.847656 567.289062 248.222656 567.292969 248.738281 C 567.320312 252.511719 566.152344 255.574219 565.050781 257.1875 C 564.867188 257.449219 564.574219 257.59375 564.277344 257.59375 Z M 565.863281 246.09375 C 565.445312 246.09375 565.066406 245.8125 564.957031 245.390625 C 564.707031 244.414062 563.992188 242.945312 563.113281 242.019531 C 562.757812 241.644531 562.769531 241.050781 563.144531 240.695312 C 563.515625 240.339844 564.109375 240.351562 564.464844 240.726562 C 565.449219 241.765625 566.394531 243.488281 566.765625 244.917969 C 566.894531 245.417969 566.597656 245.933594 566.097656 246.0625 C 566.019531 246.082031 565.941406 246.09375 565.863281 246.09375 Z M 565.863281 246.09375 " fill-opacity="1" fill-rule="nonzero" transform="matrix(1, 0, 0, 1, -169.421908, -234.073673)"/>
  <g clip-path="url(#41e316ae25)" transform="matrix(1, 0, 0, 1, -169.421908, -234.073673)">
    <path fill="#ffecb3" d="M 555.433594 235.074219 C 563.324219 235.074219 569.777344 241.605469 569.777344 249.589844 C 569.777344 257.15625 563.980469 263.40625 556.65625 264.042969 L 571.648438 282.835938 L 562.175781 282.835938 L 548.035156 264.105469 L 541.746094 264.105469 L 541.746094 282.835938 L 534.273438 282.835938 L 534.273438 235.074219 L 555.433594 235.074219 M 541.746094 260.359375 L 553.335938 260.359375 C 558.289062 260.359375 562.304688 255.539062 562.304688 249.589844 C 562.304688 243.644531 558.289062 238.820312 553.335938 238.820312 L 541.746094 238.820312 L 541.746094 260.359375 M 555.433594 233.203125 L 534.273438 233.203125 C 533.238281 233.203125 532.402344 234.039062 532.402344 235.074219 L 532.402344 282.835938 C 532.402344 283.871094 533.238281 284.707031 534.273438 284.707031 L 541.746094 284.707031 C 542.78125 284.707031 543.617188 283.871094 543.617188 282.835938 L 543.617188 265.980469 L 547.105469 265.980469 L 560.6875 283.964844 C 561.039062 284.433594 561.589844 284.707031 562.175781 284.707031 L 571.648438 284.707031 C 572.367188 284.707031 573.019531 284.296875 573.332031 283.648438 C 573.644531 283 573.554688 282.230469 573.105469 281.667969 L 560.042969 265.289062 C 566.757812 263.25 571.648438 256.894531 571.648438 249.589844 C 571.648438 240.554688 564.375 233.203125 555.433594 233.203125 Z M 543.617188 240.695312 L 553.335938 240.695312 C 557.25 240.695312 560.433594 244.6875 560.433594 249.589844 C 560.433594 254.496094 557.25 258.488281 553.335938 258.488281 L 543.617188 258.488281 Z M 543.617188 240.695312 " fill-opacity="1" fill-rule="nonzero"/>
  </g>
  <path fill="#546e7a" d="M 638.441406 283.816406 C 637.921875 283.816406 637.5 283.398438 637.5 282.878906 L 637.5 235.03125 C 637.5 234.515625 637.921875 234.09375 638.441406 234.09375 L 659.914062 234.09375 C 667.289062 234.09375 673.292969 239.984375 673.292969 247.230469 C 673.292969 251.386719 671.296875 255.246094 667.980469 257.707031 C 672.855469 259.8125 676.117188 264.699219 676.117188 270.214844 C 676.117188 277.714844 670.117188 283.816406 662.742188 283.816406 Z M 647.390625 261.300781 C 647.128906 261.300781 646.917969 261.511719 646.917969 261.769531 L 646.917969 277.71875 C 646.917969 277.976562 647.128906 278.1875 647.390625 278.1875 L 657.828125 278.1875 C 662.464844 278.1875 666.324219 274.726562 666.609375 270.308594 C 666.765625 267.941406 665.957031 265.691406 664.335938 263.972656 C 662.71875 262.25 660.519531 261.300781 658.152344 261.300781 Z M 647.390625 239.722656 C 647.128906 239.722656 646.917969 239.933594 646.917969 240.191406 L 646.917969 255.203125 C 646.917969 255.460938 647.128906 255.671875 647.390625 255.671875 L 655.324219 255.671875 C 660 255.671875 663.804688 252.09375 663.804688 247.699219 C 663.804688 243.300781 660 239.722656 655.324219 239.722656 Z M 647.390625 239.722656 " fill-opacity="1" fill-rule="nonzero" transform="matrix(1, 0, 0, 1, -169.421908, -234.073673)"/>
  <g clip-path="url(#cd1df0bbd1)" transform="matrix(1, 0, 0, 1, -169.421908, -234.073673)">
    <path fill="#ffecb3" d="M 677.527344 255.4375 C 677.160156 255.074219 676.5625 255.074219 676.195312 255.4375 L 674.863281 256.765625 C 674.496094 257.132812 674.496094 257.726562 674.863281 258.09375 C 675.230469 258.460938 675.828125 258.460938 676.195312 258.09375 L 677.527344 256.765625 C 677.894531 256.398438 677.894531 255.804688 677.527344 255.4375 Z M 680.710938 259.554688 C 680.445312 259.109375 679.867188 258.964844 679.421875 259.230469 L 677.804688 260.191406 C 677.355469 260.457031 677.210938 261.035156 677.480469 261.480469 C 677.746094 261.925781 678.324219 262.070312 678.769531 261.804688 L 680.386719 260.839844 C 680.832031 260.574219 680.980469 260 680.710938 259.554688 Z M 682.792969 264.320312 C 682.640625 263.824219 682.117188 263.542969 681.617188 263.691406 L 679.816406 264.230469 C 679.316406 264.378906 679.035156 264.902344 679.183594 265.398438 C 679.332031 265.894531 679.859375 266.175781 680.355469 266.027344 L 682.160156 265.488281 C 682.660156 265.339844 682.941406 264.816406 682.792969 264.320312 Z M 683.640625 269.445312 C 683.617188 268.925781 683.175781 268.527344 682.65625 268.550781 L 680.773438 268.636719 C 680.253906 268.660156 679.851562 269.097656 679.875 269.613281 C 679.898438 270.132812 680.339844 270.535156 680.859375 270.511719 L 682.742188 270.425781 C 683.261719 270.402344 683.664062 269.964844 683.640625 269.445312 Z M 683.207031 274.621094 C 683.3125 274.117188 682.980469 273.621094 682.472656 273.515625 L 680.625 273.140625 C 680.117188 273.039062 679.621094 273.363281 679.515625 273.871094 C 679.410156 274.378906 679.738281 274.875 680.25 274.980469 L 682.097656 275.355469 C 682.605469 275.457031 683.101562 275.128906 683.207031 274.621094 Z M 683.207031 274.621094 " fill-opacity="1" fill-rule="nonzero"/>
  </g>
  <path fill="#90a4ae" d="M 667.082031 253.460938 C 668.097656 251.742188 668.511719 249.730469 668.511719 247.699219 C 668.511719 244.871094 667.515625 242.261719 665.804688 240.070312 C 664.070312 237.847656 658.222656 235.96875 657.445312 239.878906 C 661.109375 240.609375 663.871094 243.832031 663.871094 247.699219 C 663.871094 247.796875 663.859375 247.894531 663.859375 247.992188 C 663.863281 248.050781 663.871094 248.113281 663.871094 248.167969 C 663.871094 248.636719 663.753906 249.25 663.558594 249.886719 C 663.445312 250.285156 663.300781 250.671875 663.125 251.046875 C 662.800781 251.78125 662.402344 252.453125 661.988281 252.859375 C 661.949219 252.898438 661.902344 252.933594 661.863281 252.96875 C 661.054688 253.882812 660.042969 254.609375 658.894531 255.078125 C 659.75 257.546875 665.519531 256.101562 667.082031 253.460938 Z M 660.941406 261.644531 C 664.265625 262.667969 666.699219 265.90625 666.699219 269.746094 C 666.699219 274.058594 663.628906 277.609375 659.671875 278.117188 C 659.671875 278.132812 659.671875 278.144531 659.675781 278.15625 C 659.988281 279.945312 665.953125 280.417969 668.347656 278.03125 C 670.273438 276.113281 671.128906 273.363281 671.308594 270.613281 C 671.476562 268.03125 671.097656 265.378906 669.683594 263.308594 C 667.5625 260.207031 662.027344 259.425781 660.941406 261.644531 Z M 660.941406 261.644531 " fill-opacity="1" fill-rule="nonzero" transform="matrix(1, 0, 0, 1, -169.421908, -234.073673)"/>
  <path fill="#ffecb3" d="M 666.972656 254.835938 C 666.773438 254.835938 666.574219 254.773438 666.402344 254.644531 C 665.992188 254.332031 665.910156 253.746094 666.222656 253.332031 C 667.242188 251.996094 668.222656 249.46875 667.917969 246.382812 C 667.867188 245.867188 668.246094 245.40625 668.765625 245.355469 C 669.292969 245.304688 669.742188 245.683594 669.792969 246.199219 C 670.148438 249.828125 668.957031 252.847656 667.726562 254.464844 C 667.539062 254.710938 667.257812 254.835938 666.972656 254.835938 Z M 667.953125 243.867188 C 667.589844 243.867188 667.242188 243.652344 667.089844 243.296875 C 666.703125 242.40625 665.714844 241.070312 664.5625 240.253906 C 664.136719 239.953125 664.039062 239.363281 664.34375 238.945312 C 664.644531 238.523438 665.234375 238.425781 665.65625 238.726562 C 666.941406 239.640625 668.242188 241.214844 668.820312 242.558594 C 669.027344 243.035156 668.804688 243.585938 668.324219 243.789062 C 668.203125 243.84375 668.078125 243.867188 667.953125 243.867188 Z M 667.953125 243.867188 " fill-opacity="1" fill-rule="nonzero" transform="matrix(1, 0, 0, 1, -169.421908, -234.073673)"/>
  <path fill="#90a4ae" d="M 637.265625 234.957031 L 637.265625 282.875 C 640 282.855469 642.210938 280.644531 642.210938 277.914062 L 642.210938 239.917969 C 642.210938 237.191406 640 234.980469 637.265625 234.957031 Z M 637.265625 234.957031 " fill-opacity="1" fill-rule="nonzero" transform="matrix(1, 0, 0, 1, -169.421908, -234.073673)"/>
  <g clip-path="url(#9bfe1522a3)" transform="matrix(1, 0, 0, 1, -169.421908, -234.073673)">
    <path fill="#ffecb3" d="M 659.914062 235.03125 C 666.78125 235.03125 672.347656 240.492188 672.347656 247.230469 C 672.347656 251.863281 669.714844 255.894531 665.832031 257.957031 C 671.199219 259.359375 675.175781 264.308594 675.175781 270.214844 C 675.175781 277.207031 669.609375 282.878906 662.742188 282.878906 L 638.441406 282.878906 L 638.441406 235.03125 L 659.914062 235.03125 M 647.390625 256.609375 L 655.324219 256.609375 C 660.527344 256.609375 664.746094 252.621094 664.746094 247.699219 C 664.746094 242.773438 660.527344 238.785156 655.324219 238.785156 L 647.390625 238.785156 C 646.609375 238.785156 645.976562 239.414062 645.976562 240.191406 L 645.976562 255.203125 C 645.976562 255.980469 646.609375 256.609375 647.390625 256.609375 M 647.390625 279.125 L 657.828125 279.125 C 662.84375 279.125 667.226562 275.355469 667.550781 270.371094 C 667.90625 264.90625 663.5625 260.363281 658.152344 260.363281 L 647.390625 260.363281 C 646.609375 260.363281 645.976562 260.992188 645.976562 261.769531 L 645.976562 277.71875 C 645.976562 278.496094 646.609375 279.125 647.390625 279.125 M 659.914062 233.15625 L 638.441406 233.15625 C 637.402344 233.15625 636.558594 233.996094 636.558594 235.03125 L 636.558594 282.878906 C 636.558594 283.914062 637.402344 284.753906 638.441406 284.753906 L 662.742188 284.753906 C 670.636719 284.753906 677.058594 278.230469 677.058594 270.214844 C 677.058594 264.839844 674.160156 260.023438 669.691406 257.511719 C 672.554688 254.882812 674.234375 251.183594 674.234375 247.230469 C 674.234375 239.46875 667.808594 233.15625 659.914062 233.15625 Z M 647.859375 240.660156 L 655.324219 240.660156 C 659.480469 240.660156 662.859375 243.816406 662.859375 247.699219 C 662.859375 251.578125 659.480469 254.734375 655.324219 254.734375 L 647.859375 254.734375 Z M 647.859375 262.238281 L 658.152344 262.238281 C 660.257812 262.238281 662.210938 263.082031 663.648438 264.613281 C 665.089844 266.140625 665.808594 268.144531 665.667969 270.246094 C 665.414062 274.175781 661.972656 277.25 657.828125 277.25 L 647.859375 277.25 Z M 647.859375 262.238281 " fill-opacity="1" fill-rule="nonzero"/>
  </g>
  <path fill="#ffecb3" d="M 753.128906 242.375 C 752.609375 242.375 752.191406 242.792969 752.191406 243.3125 L 752.191406 245.191406 C 752.191406 245.707031 752.609375 246.128906 753.128906 246.128906 C 753.644531 246.128906 754.0625 245.707031 754.0625 245.191406 L 754.0625 243.3125 C 754.0625 242.792969 753.644531 242.375 753.128906 242.375 Z M 748.445312 242.375 C 747.929688 242.375 747.507812 242.792969 747.507812 243.3125 L 747.507812 245.191406 C 747.507812 245.707031 747.929688 246.128906 748.445312 246.128906 C 748.960938 246.128906 749.382812 245.707031 749.382812 245.191406 L 749.382812 243.3125 C 749.382812 242.792969 748.960938 242.375 748.445312 242.375 Z M 743.761719 242.375 C 743.246094 242.375 742.824219 242.792969 742.824219 243.3125 L 742.824219 245.191406 C 742.824219 245.707031 743.246094 246.128906 743.761719 246.128906 C 744.28125 246.128906 744.699219 245.707031 744.699219 245.191406 L 744.699219 243.3125 C 744.699219 242.792969 744.28125 242.375 743.761719 242.375 Z M 781.222656 242.375 C 780.703125 242.375 780.285156 242.792969 780.285156 243.3125 L 780.285156 245.191406 C 780.285156 245.707031 780.703125 246.128906 781.222656 246.128906 C 781.738281 246.128906 782.160156 245.707031 782.160156 245.191406 L 782.160156 243.3125 C 782.160156 242.792969 781.738281 242.375 781.222656 242.375 Z M 776.539062 242.375 C 776.023438 242.375 775.601562 242.792969 775.601562 243.3125 L 775.601562 245.191406 C 775.601562 245.707031 776.023438 246.128906 776.539062 246.128906 C 777.054688 246.128906 777.476562 245.707031 777.476562 245.191406 L 777.476562 243.3125 C 777.476562 242.792969 777.054688 242.375 776.539062 242.375 Z M 771.855469 242.375 C 771.339844 242.375 770.921875 242.792969 770.921875 243.3125 L 770.921875 245.191406 C 770.921875 245.707031 771.339844 246.128906 771.855469 246.128906 C 772.375 246.128906 772.792969 245.707031 772.792969 245.191406 L 772.792969 243.3125 C 772.792969 242.792969 772.375 242.375 771.855469 242.375 Z M 771.855469 242.375 " fill-opacity="1" fill-rule="nonzero" transform="matrix(1, 0, 0, 1, -169.421908, -234.073673)"/>
  <path fill="#546e7a" d="M 758.746094 283.828125 C 758.226562 283.828125 757.808594 283.410156 757.808594 282.890625 L 757.808594 239.714844 L 743.761719 239.714844 C 743.246094 239.714844 742.824219 239.296875 742.824219 238.777344 L 742.824219 235.023438 C 742.824219 234.503906 743.246094 234.082031 743.761719 234.082031 L 781.222656 234.082031 C 781.738281 234.082031 782.160156 234.503906 782.160156 235.023438 L 782.160156 238.777344 C 782.160156 239.296875 781.738281 239.714844 781.222656 239.714844 L 767.175781 239.714844 L 767.175781 282.890625 C 767.175781 283.410156 766.757812 283.828125 766.238281 283.828125 Z M 758.746094 283.828125 " fill-opacity="1" fill-rule="nonzero" transform="matrix(1, 0, 0, 1, -169.421908, -234.073673)"/>
  <path fill="#90a4ae" d="M 757.808594 239.5625 L 757.808594 282.808594 C 760.527344 282.785156 762.726562 280.574219 762.726562 277.84375 L 762.726562 244.527344 C 762.726562 241.796875 760.527344 239.585938 757.808594 239.5625 Z M 757.808594 239.5625 " fill-opacity="1" fill-rule="nonzero" transform="matrix(1, 0, 0, 1, -169.421908, -234.073673)"/>
  <path fill="#ffecb3" d="M 762.492188 247.222656 C 761.972656 247.222656 761.554688 246.804688 761.554688 246.285156 L 761.554688 242.53125 C 761.554688 242.011719 761.972656 241.59375 762.492188 241.59375 C 763.011719 241.59375 763.429688 242.011719 763.429688 242.53125 L 763.429688 246.285156 C 763.429688 246.804688 763.011719 247.222656 762.492188 247.222656 Z M 762.492188 258.488281 C 761.972656 258.488281 761.554688 258.066406 761.554688 257.546875 L 761.554688 250.039062 C 761.554688 249.519531 761.972656 249.101562 762.492188 249.101562 C 763.011719 249.101562 763.429688 249.519531 763.429688 250.039062 L 763.429688 257.546875 C 763.429688 258.066406 763.011719 258.488281 762.492188 258.488281 Z M 762.492188 258.488281 " fill-opacity="1" fill-rule="nonzero" transform="matrix(1, 0, 0, 1, -169.421908, -234.073673)"/>
  <g clip-path="url(#d58c9b6395)" transform="matrix(1, 0, 0, 1, -169.421908, -234.073673)">
    <path fill="#ffecb3" d="M 781.222656 235.023438 L 781.222656 238.777344 L 767.644531 238.777344 C 766.867188 238.777344 766.238281 239.40625 766.238281 240.183594 L 766.238281 282.890625 L 758.746094 282.890625 L 758.746094 240.183594 C 758.746094 239.40625 758.117188 238.777344 757.339844 238.777344 L 743.761719 238.777344 L 743.761719 235.023438 L 781.222656 235.023438 M 781.222656 233.144531 L 743.761719 233.144531 C 742.726562 233.144531 741.890625 233.984375 741.890625 235.023438 L 741.890625 238.777344 C 741.890625 239.8125 742.726562 240.652344 743.761719 240.652344 L 756.875 240.652344 L 756.875 282.890625 C 756.875 283.925781 757.710938 284.765625 758.746094 284.765625 L 766.238281 284.765625 C 767.273438 284.765625 768.109375 283.925781 768.109375 282.890625 L 768.109375 240.652344 L 781.222656 240.652344 C 782.257812 240.652344 783.09375 239.8125 783.09375 238.777344 L 783.09375 235.023438 C 783.09375 233.984375 782.257812 233.144531 781.222656 233.144531 Z M 781.222656 233.144531 " fill-opacity="1" fill-rule="nonzero"/>
  </g>
  <path fill="#546e7a" d="M 897.316406 282.570312 C 897.007812 282.570312 896.71875 282.414062 896.546875 282.152344 L 885.101562 264.511719 C 884.980469 264.324219 884.792969 264.300781 884.71875 264.300781 C 884.628906 264.300781 884.464844 264.328125 884.347656 264.492188 L 871.488281 282.191406 C 871.3125 282.429688 871.035156 282.570312 870.742188 282.570312 L 866.117188 282.570312 C 865.773438 282.570312 865.457031 282.375 865.300781 282.070312 C 865.144531 281.765625 865.171875 281.394531 865.375 281.117188 L 881.304688 259.195312 C 881.417969 259.039062 881.421875 258.835938 881.320312 258.675781 L 866.265625 235.472656 C 866.082031 235.191406 866.070312 234.832031 866.230469 234.539062 C 866.390625 234.242188 866.699219 234.058594 867.035156 234.058594 L 875.292969 234.058594 C 875.605469 234.058594 875.894531 234.21875 876.066406 234.476562 L 886.644531 250.785156 C 886.765625 250.972656 886.953125 250.992188 887.03125 250.992188 C 887.117188 250.992188 887.28125 250.96875 887.398438 250.804688 L 899.289062 234.4375 C 899.464844 234.199219 899.742188 234.058594 900.035156 234.058594 L 904.660156 234.058594 C 905.003906 234.058594 905.320312 234.253906 905.476562 234.558594 C 905.632812 234.867188 905.605469 235.234375 905.402344 235.511719 L 890.441406 256.101562 C 890.332031 256.253906 890.328125 256.460938 890.429688 256.617188 L 906.347656 281.15625 C 906.53125 281.441406 906.542969 281.796875 906.382812 282.09375 C 906.222656 282.386719 905.914062 282.570312 905.578125 282.570312 Z M 897.316406 282.570312 " fill-opacity="1" fill-rule="nonzero" transform="matrix(1, 0, 0, 1, -169.421908, -234.073673)"/>
  <path fill="#90a4ae" d="M 866.195312 235.453125 L 881.949219 259.917969 C 883.496094 258.199219 884.089844 254.425781 882.636719 252.195312 L 873.804688 238.292969 C 872.347656 236.0625 868.757812 234.632812 866.195312 235.453125 Z M 884.320312 263.484375 L 896.574219 282.457031 C 898.792969 280.988281 899.421875 278.011719 897.964844 275.777344 L 891.003906 264.921875 C 889.546875 262.691406 886.5625 262.054688 884.320312 263.484375 Z M 884.320312 263.484375 " fill-opacity="1" fill-rule="nonzero" transform="matrix(1, 0, 0, 1, -169.421908, -234.073673)"/>
  <g clip-path="url(#9a70b9e74b)" transform="matrix(1, 0, 0, 1, -169.421908, -234.073673)">
    <path fill="#ffecb3" d="M 882.941406 271.011719 C 882.640625 271.421875 882.730469 271.992188 883.140625 272.292969 L 884.617188 273.375 C 885.027344 273.675781 885.601562 273.585938 885.902344 273.179688 C 886.203125 272.769531 886.113281 272.199219 885.703125 271.898438 L 884.222656 270.816406 C 883.816406 270.515625 883.242188 270.605469 882.941406 271.011719 Z M 880.226562 274.703125 C 879.929688 275.109375 880.015625 275.683594 880.425781 275.984375 L 881.90625 277.066406 C 882.3125 277.363281 882.886719 277.277344 883.1875 276.867188 C 883.488281 276.460938 883.398438 275.886719 882.992188 275.589844 L 881.511719 274.507812 C 881.101562 274.207031 880.527344 274.296875 880.226562 274.703125 Z M 877.515625 278.394531 C 877.214844 278.800781 877.304688 279.375 877.710938 279.671875 L 879.191406 280.753906 C 879.601562 281.054688 880.175781 280.964844 880.476562 280.558594 C 880.777344 280.152344 880.6875 279.578125 880.277344 279.28125 L 878.796875 278.195312 C 878.390625 277.898438 877.816406 277.984375 877.515625 278.394531 Z M 874.800781 282.085938 C 874.5 282.492188 874.589844 283.066406 875 283.363281 L 876.480469 284.445312 C 876.886719 284.746094 877.460938 284.65625 877.761719 284.25 C 878.0625 283.84375 877.972656 283.269531 877.566406 282.972656 L 876.085938 281.886719 C 875.675781 281.589844 875.101562 281.675781 874.800781 282.085938 Z M 876.839844 244.375 C 876.539062 244.375 876.242188 244.226562 876.066406 243.957031 L 874.074219 240.882812 C 873.800781 240.457031 873.921875 239.890625 874.347656 239.617188 C 874.773438 239.34375 875.339844 239.464844 875.617188 239.890625 L 877.609375 242.964844 C 877.882812 243.386719 877.761719 243.953125 877.335938 244.230469 C 877.179688 244.328125 877.007812 244.375 876.839844 244.375 Z M 882.816406 253.597656 C 882.515625 253.597656 882.222656 253.453125 882.046875 253.179688 L 878.058594 247.03125 C 877.785156 246.605469 877.90625 246.039062 878.332031 245.765625 C 878.757812 245.492188 879.324219 245.613281 879.601562 246.039062 L 883.585938 252.1875 C 883.863281 252.609375 883.742188 253.175781 883.316406 253.453125 C 883.160156 253.550781 882.988281 253.597656 882.816406 253.597656 Z M 882.816406 253.597656 " fill-opacity="1" fill-rule="nonzero"/>
  </g>
  <g clip-path="url(#621dc0cf31)" transform="matrix(1, 0, 0, 1, -169.421908, -234.073673)">
    <path fill="#ffecb3" d="M 904.660156 234.976562 L 889.699219 255.566406 C 889.363281 256.023438 889.347656 256.640625 889.65625 257.117188 L 905.578125 281.65625 L 897.316406 281.65625 L 885.875 264.015625 C 885.605469 263.597656 885.160156 263.386719 884.71875 263.386719 C 884.300781 263.386719 883.878906 263.574219 883.605469 263.953125 L 870.742188 281.65625 L 866.117188 281.65625 L 882.046875 259.730469 C 882.378906 259.269531 882.398438 258.65625 882.089844 258.179688 L 867.035156 234.976562 L 875.292969 234.976562 L 885.875 251.28125 C 886.144531 251.699219 886.585938 251.910156 887.03125 251.910156 C 887.449219 251.910156 887.867188 251.722656 888.144531 251.339844 L 900.035156 234.976562 L 904.660156 234.976562 M 904.660156 233.144531 L 900.035156 233.144531 C 899.445312 233.144531 898.894531 233.425781 898.546875 233.902344 L 887.050781 249.726562 L 876.835938 233.980469 C 876.496094 233.460938 875.917969 233.144531 875.292969 233.144531 L 867.035156 233.144531 C 866.363281 233.144531 865.746094 233.511719 865.421875 234.101562 C 865.101562 234.691406 865.128906 235.40625 865.496094 235.96875 L 880.378906 258.910156 L 864.632812 280.578125 C 864.226562 281.136719 864.171875 281.875 864.484375 282.488281 C 864.796875 283.101562 865.429688 283.484375 866.117188 283.484375 L 870.742188 283.484375 C 871.332031 283.484375 871.882812 283.203125 872.230469 282.730469 L 884.695312 265.570312 L 895.777344 282.648438 C 896.113281 283.171875 896.695312 283.484375 897.316406 283.484375 L 905.578125 283.484375 C 906.25 283.484375 906.867188 283.117188 907.1875 282.53125 C 907.511719 281.941406 907.484375 281.222656 907.117188 280.660156 L 891.371094 256.386719 L 906.144531 236.050781 C 906.550781 235.492188 906.605469 234.757812 906.292969 234.144531 C 905.980469 233.53125 905.347656 233.144531 904.660156 233.144531 Z M 904.660156 233.144531 " fill-opacity="1" fill-rule="nonzero"/>
  </g>
  <path fill="#ffecb3" d="M 610.257812 255.632812 C 608.992188 255.632812 607.867188 256.535156 607.125 257.953125 C 607.304688 257.875 607.503906 257.832031 607.714844 257.832031 C 608.539062 257.832031 609.210938 258.5 609.210938 259.320312 C 609.210938 260.144531 608.539062 260.8125 607.714844 260.8125 C 607.148438 260.8125 606.65625 260.5 606.402344 260.039062 C 606.28125 260.636719 606.214844 261.273438 606.214844 261.933594 C 606.214844 265.414062 608.023438 268.238281 610.257812 268.238281 C 612.488281 268.238281 614.296875 265.414062 614.296875 261.933594 C 614.296875 258.453125 612.488281 255.632812 610.257812 255.632812 " fill-opacity="1" fill-rule="nonzero" transform="matrix(1, 0, 0, 1, -169.421908, -234.073673)"/>
  <path fill="#ffecb3" d="M 594.46875 255.632812 C 593.203125 255.632812 592.078125 256.535156 591.335938 257.953125 C 591.515625 257.875 591.714844 257.832031 591.921875 257.832031 C 592.75 257.832031 593.421875 258.5 593.421875 259.320312 C 593.421875 260.144531 592.75 260.8125 591.921875 260.8125 C 591.359375 260.8125 590.867188 260.5 590.613281 260.039062 C 590.492188 260.636719 590.425781 261.273438 590.425781 261.933594 C 590.425781 265.414062 592.234375 268.238281 594.46875 268.238281 C 596.699219 268.238281 598.507812 265.414062 598.507812 261.933594 C 598.507812 258.453125 596.699219 255.632812 594.46875 255.632812 " fill-opacity="1" fill-rule="nonzero" transform="matrix(1, 0, 0, 1, -169.421908, -234.073673)"/>
  <g clip-path="url(#73d525ca7e)" transform="matrix(1, 0, 0, 1, -169.421908, -234.073673)">
    <path fill="#546e7a" d="M 620.195312 263.28125 C 620.195312 267.421875 616.808594 270.785156 612.648438 270.785156 L 592.074219 270.785156 C 587.914062 270.785156 584.527344 267.421875 584.527344 263.28125 C 584.527344 263.023438 584.542969 262.769531 584.566406 262.519531 C 584.542969 262.269531 584.527344 262.015625 584.527344 261.757812 C 584.527344 257.621094 587.914062 254.253906 592.074219 254.253906 L 612.648438 254.253906 C 616.808594 254.253906 620.195312 257.621094 620.195312 261.757812 C 620.195312 262.015625 620.179688 262.269531 620.15625 262.519531 C 620.179688 262.769531 620.195312 263.023438 620.195312 263.28125 Z M 607.574219 280.789062 C 607.574219 281.433594 607.046875 281.957031 606.402344 281.957031 C 605.757812 281.957031 605.226562 281.433594 605.226562 280.789062 L 605.226562 279.089844 C 605.226562 278.449219 605.757812 277.921875 606.402344 277.921875 C 607.046875 277.921875 607.574219 278.449219 607.574219 279.089844 Z M 603.535156 280.789062 C 603.535156 281.433594 603.007812 281.957031 602.359375 281.957031 C 601.714844 281.957031 601.1875 281.433594 601.1875 280.789062 L 601.1875 279.089844 C 601.1875 278.449219 601.714844 277.921875 602.359375 277.921875 C 603.007812 277.921875 603.535156 278.449219 603.535156 279.089844 Z M 599.496094 280.789062 C 599.496094 281.433594 598.964844 281.957031 598.320312 281.957031 C 597.675781 281.957031 597.148438 281.433594 597.148438 280.789062 L 597.148438 279.089844 C 597.148438 278.449219 597.675781 277.921875 598.320312 277.921875 C 598.964844 277.921875 599.496094 278.449219 599.496094 279.089844 Z M 631.726562 262.484375 C 630.578125 262.484375 629.628906 263.308594 629.433594 264.390625 L 623.941406 263.261719 C 623.753906 261.011719 623.179688 259.375 622.496094 259.375 C 622.257812 259.375 622.035156 259.574219 621.835938 259.929688 C 620.027344 252.761719 614.328125 247.136719 607.101562 245.398438 C 607.558594 245.179688 607.820312 244.925781 607.820312 244.652344 C 607.820312 243.976562 606.171875 243.402344 603.914062 243.21875 L 602.777344 237.757812 C 603.867188 237.5625 604.695312 236.613281 604.695312 235.476562 C 604.695312 234.191406 603.648438 233.152344 602.359375 233.152344 C 601.074219 233.152344 600.027344 234.191406 600.027344 235.476562 C 600.027344 236.613281 600.855469 237.5625 601.945312 237.757812 L 600.808594 243.21875 C 598.550781 243.402344 596.902344 243.976562 596.902344 244.652344 C 596.902344 244.925781 597.164062 245.179688 597.621094 245.398438 C 590.394531 247.136719 584.695312 252.761719 582.886719 259.929688 C 582.6875 259.574219 582.464844 259.375 582.226562 259.375 C 581.542969 259.375 580.96875 261.011719 580.78125 263.261719 L 575.289062 264.390625 C 575.09375 263.308594 574.144531 262.484375 572.996094 262.484375 C 571.707031 262.484375 570.664062 263.523438 570.664062 264.804688 C 570.664062 266.085938 571.707031 267.125 572.996094 267.125 C 574.144531 267.125 575.09375 266.304688 575.289062 265.21875 L 580.78125 266.347656 C 580.96875 268.597656 581.542969 270.234375 582.226562 270.234375 C 582.464844 270.234375 582.6875 270.035156 582.886719 269.679688 C 585.074219 278.351562 592.964844 284.773438 602.359375 284.773438 C 611.757812 284.773438 619.644531 278.351562 621.835938 269.679688 C 622.035156 270.035156 622.257812 270.234375 622.496094 270.234375 C 623.179688 270.234375 623.753906 268.597656 623.941406 266.347656 L 629.433594 265.21875 C 629.628906 266.304688 630.578125 267.125 631.726562 267.125 C 633.015625 267.125 634.058594 266.085938 634.058594 264.804688 C 634.058594 263.523438 633.015625 262.484375 631.726562 262.484375 " fill-opacity="1" fill-rule="nonzero"/>
  </g>
  <path fill="#90a4ae" d="M 612.648438 269.261719 L 592.074219 269.261719 C 588.171875 269.261719 584.953125 266.300781 584.566406 262.519531 C 584.542969 262.769531 584.527344 263.023438 584.527344 263.28125 C 584.527344 267.421875 587.914062 270.785156 592.074219 270.785156 L 612.648438 270.785156 C 616.808594 270.785156 620.195312 267.421875 620.195312 263.28125 C 620.195312 263.023438 620.179688 262.769531 620.15625 262.519531 C 619.769531 266.300781 616.550781 269.261719 612.648438 269.261719 " fill-opacity="1" fill-rule="nonzero" transform="matrix(1, 0, 0, 1, -169.421908, -234.073673)"/>
  <g clip-path="url(#8c0f554ae9)" transform="matrix(1, 0, 0, 1, -169.421908, -234.073673)">
    <path fill="#546e7a" d="M 815.792969 283.773438 C 815.5 283.773438 815.226562 283.636719 815.050781 283.402344 L 801.1875 265.042969 L 796.296875 265.042969 L 796.296875 282.835938 C 796.296875 283.355469 795.878906 283.773438 795.363281 283.773438 L 787.886719 283.773438 C 787.371094 283.773438 786.953125 283.355469 786.953125 282.835938 L 786.953125 235.074219 C 786.953125 234.558594 787.371094 234.140625 787.886719 234.140625 L 809.050781 234.140625 C 817.476562 234.140625 824.328125 241.070312 824.328125 249.589844 C 824.328125 256.964844 819.046875 263.3125 812.023438 264.734375 L 825.996094 282.25 C 826.21875 282.53125 826.261719 282.917969 826.105469 283.242188 C 825.949219 283.566406 825.621094 283.773438 825.265625 283.773438 Z M 806.953125 259.425781 C 811.382812 259.425781 814.984375 255.011719 814.984375 249.589844 C 814.984375 244.167969 811.382812 239.757812 806.953125 239.757812 L 796.296875 239.757812 L 796.296875 259.425781 Z M 806.953125 259.425781 " fill-opacity="1" fill-rule="nonzero"/>
  </g>
  <path fill="#ffecb3" d="M 799.101562 247.25 C 799.101562 247.765625 799.519531 248.1875 800.035156 248.1875 L 801.90625 248.1875 C 802.421875 248.1875 802.839844 247.765625 802.839844 247.25 C 802.839844 246.734375 802.421875 246.3125 801.90625 246.3125 L 800.035156 246.3125 C 799.519531 246.3125 799.101562 246.734375 799.101562 247.25 Z M 799.101562 242.566406 C 799.101562 243.085938 799.519531 243.503906 800.035156 243.503906 L 801.90625 243.503906 C 802.421875 243.503906 802.839844 243.085938 802.839844 242.566406 C 802.839844 242.050781 802.421875 241.628906 801.90625 241.628906 L 800.035156 241.628906 C 799.519531 241.628906 799.101562 242.050781 799.101562 242.566406 Z M 799.101562 251.933594 C 799.101562 252.449219 799.519531 252.867188 800.035156 252.867188 L 801.90625 252.867188 C 802.421875 252.867188 802.839844 252.449219 802.839844 251.933594 C 802.839844 251.414062 802.421875 250.996094 801.90625 250.996094 L 800.035156 250.996094 C 799.519531 250.996094 799.101562 251.414062 799.101562 251.933594 Z M 799.101562 256.613281 C 799.101562 257.132812 799.519531 257.550781 800.035156 257.550781 L 801.90625 257.550781 C 802.421875 257.550781 802.839844 257.132812 802.839844 256.613281 C 802.839844 256.097656 802.421875 255.679688 801.90625 255.679688 L 800.035156 255.679688 C 799.519531 255.679688 799.101562 256.097656 799.101562 256.613281 Z M 799.101562 256.613281 " fill-opacity="1" fill-rule="nonzero" transform="matrix(1, 0, 0, 1, -169.421908, -234.073673)"/>
  <path fill="#90a4ae" d="M 801.703125 264.632812 L 815.101562 283.496094 C 817.300781 281.90625 817.8125 278.835938 816.242188 276.613281 L 808.5625 265.824219 C 806.988281 263.601562 803.925781 263.078125 801.703125 264.632812 Z M 787.03125 234.921875 L 787.03125 282.753906 C 789.742188 282.734375 791.9375 280.527344 791.9375 277.804688 L 791.9375 239.875 C 791.9375 237.152344 789.742188 234.945312 787.03125 234.921875 Z M 818.402344 255.957031 C 819.410156 254.035156 819.820312 251.789062 819.820312 249.515625 C 819.820312 246.355469 818.832031 243.433594 817.136719 240.984375 C 815.414062 238.496094 809.613281 236.398438 808.84375 240.769531 C 812.480469 241.585938 815.21875 245.191406 815.21875 249.515625 C 815.21875 249.625 815.207031 249.730469 815.203125 249.84375 C 815.210938 249.910156 815.21875 249.980469 815.21875 250.039062 C 815.21875 250.5625 815.101562 251.25 814.910156 251.960938 C 814.796875 252.410156 814.648438 252.839844 814.476562 253.257812 C 814.15625 254.078125 813.761719 254.828125 813.351562 255.285156 C 813.308594 255.328125 813.265625 255.367188 813.222656 255.410156 C 812.421875 256.429688 811.421875 257.242188 810.28125 257.765625 C 811.132812 260.53125 816.855469 258.914062 818.402344 255.957031 Z M 818.402344 255.957031 " fill-opacity="1" fill-rule="nonzero" transform="matrix(1, 0, 0, 1, -169.421908, -234.073673)"/>
  <path fill="#ffecb3" d="M 817.894531 257.59375 C 817.710938 257.59375 817.527344 257.539062 817.367188 257.425781 C 816.941406 257.132812 816.835938 256.550781 817.125 256.125 C 818.066406 254.75 819.066406 252.09375 819.039062 248.753906 C 819.035156 248.238281 819.449219 247.8125 819.964844 247.808594 C 820.480469 247.847656 820.902344 248.222656 820.90625 248.738281 C 820.9375 252.511719 819.769531 255.574219 818.667969 257.1875 C 818.484375 257.449219 818.191406 257.59375 817.894531 257.59375 Z M 819.476562 246.09375 C 819.0625 246.09375 818.683594 245.8125 818.574219 245.390625 C 818.320312 244.414062 817.605469 242.945312 816.726562 242.019531 C 816.371094 241.644531 816.386719 241.050781 816.761719 240.695312 C 817.132812 240.339844 817.726562 240.351562 818.082031 240.726562 C 819.066406 241.765625 820.011719 243.488281 820.382812 244.917969 C 820.511719 245.417969 820.210938 245.933594 819.714844 246.0625 C 819.636719 246.082031 819.558594 246.09375 819.476562 246.09375 Z M 819.476562 246.09375 " fill-opacity="1" fill-rule="nonzero" transform="matrix(1, 0, 0, 1, -169.421908, -234.073673)"/>
  <g clip-path="url(#d043d8c240)" transform="matrix(1, 0, 0, 1, -169.421908, -234.073673)">
    <path fill="#ffecb3" d="M 809.050781 235.074219 C 816.941406 235.074219 823.394531 241.605469 823.394531 249.589844 C 823.394531 257.15625 817.59375 263.40625 810.273438 264.042969 L 825.265625 282.835938 L 815.792969 282.835938 L 801.652344 264.105469 L 795.363281 264.105469 L 795.363281 282.835938 L 787.886719 282.835938 L 787.886719 235.074219 L 809.050781 235.074219 M 795.363281 260.359375 L 806.953125 260.359375 C 811.90625 260.359375 815.921875 255.539062 815.921875 249.589844 C 815.921875 243.644531 811.90625 238.820312 806.953125 238.820312 L 795.363281 238.820312 L 795.363281 260.359375 M 809.050781 233.203125 L 787.886719 233.203125 C 786.855469 233.203125 786.019531 234.039062 786.019531 235.074219 L 786.019531 282.835938 C 786.019531 283.871094 786.855469 284.707031 787.886719 284.707031 L 795.363281 284.707031 C 796.394531 284.707031 797.230469 283.871094 797.230469 282.835938 L 797.230469 265.980469 L 800.722656 265.980469 L 814.304688 283.964844 C 814.65625 284.433594 815.207031 284.707031 815.792969 284.707031 L 825.265625 284.707031 C 825.984375 284.707031 826.636719 284.296875 826.949219 283.648438 C 827.257812 283 827.171875 282.230469 826.722656 281.667969 L 813.660156 265.289062 C 820.375 263.25 825.265625 256.894531 825.265625 249.589844 C 825.265625 240.554688 817.992188 233.203125 809.050781 233.203125 Z M 797.230469 240.695312 L 806.953125 240.695312 C 810.867188 240.695312 814.050781 244.6875 814.050781 249.589844 C 814.050781 254.496094 810.867188 258.488281 806.953125 258.488281 L 797.230469 258.488281 Z M 797.230469 240.695312 " fill-opacity="1" fill-rule="nonzero"/>
  </g>
  <path fill="#ffecb3" d="M 725.917969 255.632812 C 724.65625 255.632812 723.53125 256.535156 722.789062 257.953125 C 722.96875 257.875 723.167969 257.832031 723.375 257.832031 C 724.203125 257.832031 724.871094 258.5 724.871094 259.320312 C 724.871094 260.144531 724.203125 260.8125 723.375 260.8125 C 722.8125 260.8125 722.320312 260.5 722.066406 260.039062 C 721.945312 260.636719 721.878906 261.273438 721.878906 261.933594 C 721.878906 265.414062 723.6875 268.238281 725.917969 268.238281 C 728.152344 268.238281 729.960938 265.414062 729.960938 261.933594 C 729.960938 258.453125 728.152344 255.632812 725.917969 255.632812 " fill-opacity="1" fill-rule="nonzero" transform="matrix(1, 0, 0, 1, -169.421908, -234.073673)"/>
  <path fill="#ffecb3" d="M 710.128906 255.632812 C 708.867188 255.632812 707.738281 256.535156 707 257.953125 C 707.179688 257.875 707.378906 257.832031 707.585938 257.832031 C 708.414062 257.832031 709.082031 258.5 709.082031 259.320312 C 709.082031 260.144531 708.414062 260.8125 707.585938 260.8125 C 707.023438 260.8125 706.53125 260.5 706.277344 260.039062 C 706.15625 260.636719 706.089844 261.273438 706.089844 261.933594 C 706.089844 265.414062 707.898438 268.238281 710.128906 268.238281 C 712.359375 268.238281 714.171875 265.414062 714.171875 261.933594 C 714.171875 258.453125 712.359375 255.632812 710.128906 255.632812 " fill-opacity="1" fill-rule="nonzero" transform="matrix(1, 0, 0, 1, -169.421908, -234.073673)"/>
  <g clip-path="url(#697ab4e0f7)" transform="matrix(1, 0, 0, 1, -169.421908, -234.073673)">
    <path fill="#546e7a" d="M 735.859375 263.28125 C 735.859375 267.421875 732.472656 270.785156 728.3125 270.785156 L 707.738281 270.785156 C 703.578125 270.785156 700.191406 267.421875 700.191406 263.28125 C 700.191406 263.023438 700.203125 262.769531 700.230469 262.519531 C 700.203125 262.269531 700.191406 262.015625 700.191406 261.757812 C 700.191406 257.621094 703.578125 254.253906 707.738281 254.253906 L 728.3125 254.253906 C 732.472656 254.253906 735.859375 257.621094 735.859375 261.757812 C 735.859375 262.015625 735.84375 262.269531 735.820312 262.519531 C 735.84375 262.769531 735.859375 263.023438 735.859375 263.28125 Z M 723.238281 280.789062 C 723.238281 281.433594 722.710938 281.957031 722.066406 281.957031 C 721.417969 281.957031 720.890625 281.433594 720.890625 280.789062 L 720.890625 279.089844 C 720.890625 278.449219 721.417969 277.921875 722.066406 277.921875 C 722.710938 277.921875 723.238281 278.449219 723.238281 279.089844 Z M 719.199219 280.789062 C 719.199219 281.433594 718.667969 281.957031 718.023438 281.957031 C 717.378906 281.957031 716.851562 281.433594 716.851562 280.789062 L 716.851562 279.089844 C 716.851562 278.449219 717.378906 277.921875 718.023438 277.921875 C 718.667969 277.921875 719.199219 278.449219 719.199219 279.089844 Z M 715.15625 280.789062 C 715.15625 281.433594 714.628906 281.957031 713.984375 281.957031 C 713.339844 281.957031 712.808594 281.433594 712.808594 280.789062 L 712.808594 279.089844 C 712.808594 278.449219 713.339844 277.921875 713.984375 277.921875 C 714.628906 277.921875 715.15625 278.449219 715.15625 279.089844 Z M 747.390625 262.484375 C 746.242188 262.484375 745.292969 263.308594 745.09375 264.390625 L 739.601562 263.261719 C 739.417969 261.011719 738.84375 259.375 738.160156 259.375 C 737.921875 259.375 737.699219 259.574219 737.496094 259.929688 C 735.691406 252.761719 729.988281 247.136719 722.761719 245.398438 C 723.222656 245.179688 723.484375 244.925781 723.484375 244.652344 C 723.484375 243.976562 721.835938 243.402344 719.578125 243.21875 L 718.441406 237.757812 C 719.53125 237.5625 720.359375 236.613281 720.359375 235.476562 C 720.359375 234.191406 719.3125 233.152344 718.023438 233.152344 C 716.734375 233.152344 715.691406 234.191406 715.691406 235.476562 C 715.691406 236.613281 716.519531 237.5625 717.609375 237.757812 L 716.472656 243.21875 C 714.210938 243.402344 712.5625 243.976562 712.5625 244.652344 C 712.5625 244.925781 712.828125 245.179688 713.285156 245.398438 C 706.058594 247.136719 700.359375 252.761719 698.550781 259.929688 C 698.351562 259.574219 698.125 259.375 697.886719 259.375 C 697.207031 259.375 696.628906 261.011719 696.445312 263.261719 L 690.953125 264.390625 C 690.757812 263.308594 689.804688 262.484375 688.660156 262.484375 C 687.371094 262.484375 686.328125 263.523438 686.328125 264.804688 C 686.328125 266.085938 687.371094 267.125 688.660156 267.125 C 689.804688 267.125 690.757812 266.304688 690.953125 265.21875 L 696.445312 266.347656 C 696.628906 268.597656 697.207031 270.234375 697.886719 270.234375 C 698.125 270.234375 698.351562 270.035156 698.550781 269.679688 C 700.738281 278.351562 708.628906 284.773438 718.023438 284.773438 C 727.421875 284.773438 735.308594 278.351562 737.496094 269.679688 C 737.699219 270.035156 737.921875 270.234375 738.160156 270.234375 C 738.84375 270.234375 739.417969 268.597656 739.601562 266.347656 L 745.09375 265.21875 C 745.292969 266.304688 746.242188 267.125 747.390625 267.125 C 748.675781 267.125 749.722656 266.085938 749.722656 264.804688 C 749.722656 263.523438 748.675781 262.484375 747.390625 262.484375 " fill-opacity="1" fill-rule="nonzero"/>
  </g>
  <path fill="#90a4ae" d="M 728.3125 269.261719 L 707.738281 269.261719 C 703.835938 269.261719 700.613281 266.300781 700.230469 262.519531 C 700.203125 262.769531 700.191406 263.023438 700.191406 263.28125 C 700.191406 267.421875 703.578125 270.785156 707.738281 270.785156 L 728.3125 270.785156 C 732.472656 270.785156 735.859375 267.421875 735.859375 263.28125 C 735.859375 263.023438 735.84375 262.769531 735.820312 262.519531 C 735.433594 266.300781 732.214844 269.261719 728.3125 269.261719 " fill-opacity="1" fill-rule="nonzero" transform="matrix(1, 0, 0, 1, -169.421908, -234.073673)"/>
  <g clip-path="url(#e17ebf7f6d)" transform="matrix(1, 0, 0, 1, -169.421908, -234.073673)">
    <path fill="#90a4ae" d="M 846.359375 263.363281 L 839.582031 261.105469 L 840.230469 259.0625 L 847.003906 261.320312 Z M 856.46875 283.691406 L 856.46875 282.617188 C 856.46875 281.433594 855.5 280.464844 854.316406 280.464844 C 854.316406 280.464844 844.636719 279.925781 844.636719 278.3125 C 844.636719 276.699219 842.488281 276.699219 842.488281 278.3125 C 842.488281 279.925781 832.808594 280.464844 832.808594 280.464844 C 831.625 280.464844 830.65625 281.433594 830.65625 282.617188 L 830.65625 283.691406 C 830.65625 283.691406 830.65625 284.765625 843.5625 284.765625 C 856.46875 284.765625 856.46875 283.691406 856.46875 283.691406 Z M 853.242188 233.144531 C 859.15625 233.144531 863.996094 237.984375 863.996094 243.898438 C 863.996094 249.8125 859.15625 254.652344 853.242188 254.652344 C 847.328125 254.652344 842.488281 249.8125 842.488281 243.898438 C 842.488281 237.984375 847.328125 233.144531 853.242188 233.144531 Z M 853.242188 233.144531 " fill-opacity="1" fill-rule="nonzero"/>
  </g>
  <path fill="#455a64" d="M 844.636719 277.238281 L 844.636719 275.085938 C 844.636719 274.550781 844.101562 274.011719 843.5625 274.011719 C 843.023438 274.011719 842.488281 274.550781 842.488281 275.085938 L 842.488281 277.238281 C 841.949219 277.238281 841.414062 277.777344 841.414062 278.3125 C 841.414062 278.851562 841.949219 279.390625 842.488281 279.390625 L 844.636719 279.390625 C 845.175781 279.390625 845.714844 278.851562 845.714844 278.3125 C 845.714844 277.777344 845.175781 277.238281 844.636719 277.238281 Z M 844.636719 277.238281 " fill-opacity="1" fill-rule="nonzero" transform="matrix(1, 0, 0, 1, -169.421908, -234.073673)"/>
  <path fill="#546e7a" d="M 850.769531 269.925781 L 844.746094 265.945312 L 850.660156 259.921875 C 850.769531 259.816406 850.875 259.601562 850.984375 259.386719 L 851.84375 254.652344 C 851.089844 254.546875 850.445312 254.4375 849.800781 254.117188 L 848.941406 258.632812 L 842.59375 265.085938 L 840.660156 265.300781 L 841.734375 260.355469 L 849.046875 253.792969 C 848.296875 253.472656 847.648438 253.148438 847.113281 252.71875 L 839.691406 259.277344 C 839.582031 259.386719 839.476562 259.492188 839.476562 259.601562 L 835.175781 268.203125 L 835.175781 268.3125 C 835.175781 268.417969 835.066406 268.417969 835.066406 268.527344 L 835.066406 268.957031 C 835.066406 269.066406 835.066406 269.066406 835.175781 269.171875 C 835.175781 269.171875 835.175781 269.28125 835.28125 269.28125 C 835.28125 269.28125 835.28125 269.386719 835.390625 269.386719 L 835.496094 269.496094 L 843.023438 275.949219 C 843.242188 276.164062 843.457031 276.164062 843.777344 276.164062 C 843.992188 276.164062 844.207031 276.054688 844.316406 275.949219 L 850.875 271.644531 C 851.199219 271.429688 851.414062 271.109375 851.414062 270.785156 C 851.414062 270.464844 851.089844 270.140625 850.769531 269.925781 Z M 843.457031 273.582031 L 838.1875 269.066406 L 842.917969 267.34375 L 846.574219 269.710938 Z M 843.457031 273.582031 " fill-opacity="1" fill-rule="nonzero" transform="matrix(1, 0, 0, 1, -169.421908, -234.073673)"/>
  <path fill="#ffecb3" d="M 853.242188 235.296875 C 848.511719 235.296875 844.636719 239.167969 844.636719 243.898438 C 844.636719 248.632812 848.511719 252.503906 853.242188 252.503906 C 857.972656 252.503906 861.84375 248.632812 861.84375 243.898438 C 861.84375 239.167969 857.972656 235.296875 853.242188 235.296875 Z M 853.242188 235.296875 " fill-opacity="1" fill-rule="nonzero" transform="matrix(1, 0, 0, 1, -169.421908, -234.073673)"/>
  <path fill="#ffffff" d="M 857.542969 243.898438 C 857.542969 244.183594 857.515625 244.460938 857.460938 244.738281 C 857.40625 245.015625 857.324219 245.285156 857.214844 245.546875 C 857.109375 245.804688 856.976562 246.054688 856.820312 246.289062 C 856.660156 246.523438 856.484375 246.742188 856.285156 246.941406 C 856.085938 247.140625 855.867188 247.320312 855.632812 247.476562 C 855.398438 247.632812 855.148438 247.765625 854.886719 247.875 C 854.628906 247.980469 854.359375 248.0625 854.082031 248.117188 C 853.804688 248.171875 853.523438 248.203125 853.242188 248.203125 C 852.960938 248.203125 852.679688 248.171875 852.402344 248.117188 C 852.125 248.0625 851.855469 247.980469 851.597656 247.875 C 851.335938 247.765625 851.085938 247.632812 850.851562 247.476562 C 850.617188 247.320312 850.398438 247.140625 850.199219 246.941406 C 850 246.742188 849.820312 246.523438 849.664062 246.289062 C 849.507812 246.054688 849.375 245.804688 849.269531 245.546875 C 849.160156 245.285156 849.078125 245.015625 849.023438 244.738281 C 848.96875 244.460938 848.941406 244.183594 848.941406 243.898438 C 848.941406 243.617188 848.96875 243.335938 849.023438 243.058594 C 849.078125 242.78125 849.160156 242.515625 849.269531 242.253906 C 849.375 241.992188 849.507812 241.746094 849.664062 241.507812 C 849.820312 241.273438 850 241.058594 850.199219 240.859375 C 850.398438 240.65625 850.617188 240.480469 850.851562 240.324219 C 851.085938 240.164062 851.335938 240.03125 851.597656 239.925781 C 851.855469 239.816406 852.125 239.734375 852.402344 239.679688 C 852.679688 239.625 852.960938 239.597656 853.242188 239.597656 C 853.523438 239.597656 853.804688 239.625 854.082031 239.679688 C 854.359375 239.734375 854.628906 239.816406 854.886719 239.925781 C 855.148438 240.03125 855.398438 240.164062 855.632812 240.324219 C 855.867188 240.480469 856.085938 240.65625 856.285156 240.859375 C 856.484375 241.058594 856.660156 241.273438 856.820312 241.507812 C 856.976562 241.746094 857.109375 241.992188 857.214844 242.253906 C 857.324219 242.515625 857.40625 242.78125 857.460938 243.058594 C 857.515625 243.335938 857.542969 243.617188 857.542969 243.898438 Z M 857.542969 243.898438 " fill-opacity="1" fill-rule="nonzero" transform="matrix(1, 0, 0, 1, -169.421908, -234.073673)"/>
  <g clip-path="url(#7506b9a388)" transform="matrix(1, 0, 0, 1, -169.421908, -234.073673)"/>
</svg>