<?xml version="1.0" encoding="iso-8859-1"?>
<!-- Generator: Adobe Illustrator 19.0.0, SVG Export Plug-In . SVG Version: 6.00 Build 0)  -->
<svg version="1.1" id="Layer_1" xmlns="http://www.w3.org/2000/svg" xmlns:xlink="http://www.w3.org/1999/xlink" x="0px" y="0px"
	 viewBox="0 0 512 512" style="enable-background:new 0 0 512 512;" xml:space="preserve">
<polygon style="fill:#CCCCCC;" points="303.995,473.732 207.993,473.732 216.031,440.249 223.797,407.946 288.203,407.946 
	295.956,440.249 "/>
<polygon style="fill:#999999;" points="295.956,440.249 216.031,440.249 223.797,407.946 249.925,375.918 288.203,407.946 "/>
<path style="fill:#CCCCCC;" d="M512,62.829v311.238c0,18.711-15.17,33.881-33.881,33.881H33.881C15.17,407.946,0,392.778,0,374.067
	V62.829c0-18.711,15.17-33.881,33.881-33.881h444.239C496.83,28.947,512,44.118,512,62.829z"/>
<path style="fill:#E6E6E6;" d="M512,62.829v311.238c0,18.711-15.17,33.881-33.881,33.881H205.943L312.207,28.948h165.912
	C496.83,28.947,512,44.118,512,62.829z"/>
<rect y="75.427" style="fill:#9BD7F4;" width="512" height="286.042"/>
<polygon style="fill:#C8EDFC;" points="512,75.427 512,361.469 218.976,361.469 299.174,75.427 "/>
<rect x="177.715" y="464.415" style="fill:#E6E6E6;" width="156.557" height="18.636"/>
<g>
	<rect y="69.836" style="fill:#B3B3B3;" width="512" height="11.182"/>
	<rect y="356.835" style="fill:#B3B3B3;" width="512" height="11.182"/>
</g>
<g>
	<polygon style="fill:#4D4D4D;" points="212.758,279.043 120.512,218.448 212.758,157.852 222.99,173.429 154.456,218.448 
		222.99,263.467 	"/>
	<polygon style="fill:#4D4D4D;" points="396.455,218.454 304.206,279.046 293.968,263.467 362.512,218.454 293.968,173.428 
		304.206,157.848 	"/>
	<polygon style="fill:#4D4D4D;" points="292.303,130.553 242.632,311.274 233.736,308.828 224.666,306.343 274.326,125.62 
		284.327,128.367 	"/>
</g>
<g>
	<polygon style="fill:#808080;" points="284.327,128.367 292.303,130.553 242.632,311.274 233.736,308.828 	"/>
	<polygon style="fill:#808080;" points="396.455,218.454 304.206,279.046 293.968,263.467 362.512,218.454 293.968,173.428 
		304.206,157.848 	"/>
</g>
<g>
</g>
<g>
</g>
<g>
</g>
<g>
</g>
<g>
</g>
<g>
</g>
<g>
</g>
<g>
</g>
<g>
</g>
<g>
</g>
<g>
</g>
<g>
</g>
<g>
</g>
<g>
</g>
<g>
</g>
</svg>
